%TF.GenerationSoftware,KiCad,Pcbnew,9.0.6*%
%TF.CreationDate,2026-01-15T18:02:00-06:00*%
%TF.ProjectId,shift,73686966-742e-46b6-9963-61645f706362,rev?*%
%TF.SameCoordinates,Original*%
%TF.FileFunction,Profile,NP*%
%FSLAX46Y46*%
G04 Gerber Fmt 4.6, Leading zero omitted, Abs format (unit mm)*
G04 Created by KiCad (PCBNEW 9.0.6) date 2026-01-15 18:02:00*
%MOMM*%
%LPD*%
G01*
G04 APERTURE LIST*
%TA.AperFunction,Profile*%
%ADD10C,0.150000*%
%TD*%
G04 APERTURE END LIST*
D10*
X26245025Y-77963337D02*
X26330535Y-68866631D01*
X77123445Y-112649841D02*
X69000000Y-113500000D01*
X42833955Y-34775239D02*
X49760261Y-33925080D01*
X91061567Y-51948459D02*
X93883396Y-61725292D01*
X81142413Y-36220510D02*
X84648321Y-39026036D01*
X27869714Y-58919766D02*
X31888682Y-45997343D01*
X94909515Y-78558449D02*
X93028296Y-89185441D01*
X54890858Y-113670032D02*
X45228234Y-112989904D01*
X33513371Y-105083422D02*
X29323383Y-94201382D01*
X84648321Y-39026036D02*
X86786070Y-42001594D01*
X49760261Y-33925080D02*
X63527363Y-33670032D01*
X41380286Y-112139745D02*
X38472948Y-110694474D01*
X27442164Y-86804995D02*
X26245025Y-77963337D01*
X85246891Y-107633900D02*
X83280162Y-109674283D01*
X35993159Y-108569076D02*
X33513371Y-105083422D01*
X69000000Y-113500000D02*
X54890858Y-113670032D01*
X34625000Y-40471307D02*
X38387438Y-36730606D01*
X73361008Y-34180128D02*
X78149565Y-34945271D01*
X78149565Y-34945271D02*
X81142413Y-36220510D01*
X81056903Y-111204570D02*
X77123445Y-112649841D01*
X83280162Y-109674283D02*
X81056903Y-111204570D01*
X38387438Y-36730606D02*
X42833955Y-34775239D01*
X94995025Y-69801807D02*
X94909515Y-78558449D01*
X45228234Y-112989904D02*
X41380286Y-112139745D01*
X26330535Y-68866631D02*
X27869714Y-58919766D01*
X63527363Y-33670032D02*
X73361008Y-34180128D01*
X31888682Y-45997343D02*
X34625000Y-40471307D01*
X93028296Y-89185441D02*
X88667289Y-101342721D01*
X38472948Y-110694474D02*
X35993159Y-108569076D01*
X29323383Y-94201382D02*
X27442164Y-86804995D01*
X93883396Y-61725292D02*
X94995025Y-69801807D01*
X86786070Y-42001594D02*
X91061567Y-51948459D01*
X88667289Y-101342721D02*
X85246891Y-107633900D01*
M02*
