M48
; DRILL file {KiCad 9.0.6} date 2026-01-15T18:02:36-0600
; FORMAT={-:-/ absolute / metric / decimal}
; #@! TF.CreationDate,2026-01-15T18:02:36-06:00
; #@! TF.GenerationSoftware,Kicad,Pcbnew,9.0.6
; #@! TF.FileFunction,Plated,1,2,PTH
FMAT,2
METRIC
; #@! TA.AperFunction,Plated,PTH,ViaDrill
T1C0.300
; #@! TA.AperFunction,Plated,PTH,ComponentDrill
T2C1.000
%
G90
G05
T1
X51.04Y-45.5
X59.5Y-47.399
X59.52Y-49.98
X67.24Y-45.76
X69.5Y-51.5
T2
X38.0Y-70.96
X38.0Y-73.5
X38.0Y-76.04
X40.704Y-59.296
X42.5Y-57.5
X43.5Y-91.0
X44.296Y-55.704
X45.296Y-92.796
X47.092Y-94.592
X49.46Y-42.0
X52.0Y-42.0
X54.54Y-42.0
X57.08Y-42.0
X57.46Y-53.0
X58.96Y-98.5
X59.62Y-42.0
X60.0Y-53.0
X61.5Y-98.5
X62.16Y-42.0
X62.54Y-53.0
X64.04Y-98.5
X64.7Y-42.0
X67.24Y-42.0
X69.78Y-42.0
X72.32Y-42.0
X76.5Y-55.0
X76.908Y-93.092
X78.296Y-56.796
X78.704Y-91.296
X80.092Y-58.592
X80.5Y-89.5
X83.0Y-70.46
X83.0Y-73.0
X83.0Y-75.54
M30
