%TF.GenerationSoftware,KiCad,Pcbnew,9.0.6*%
%TF.CreationDate,2026-01-15T18:02:00-06:00*%
%TF.ProjectId,shift,73686966-742e-46b6-9963-61645f706362,rev?*%
%TF.SameCoordinates,Original*%
%TF.FileFunction,Copper,L1,Top*%
%TF.FilePolarity,Positive*%
%FSLAX46Y46*%
G04 Gerber Fmt 4.6, Leading zero omitted, Abs format (unit mm)*
G04 Created by KiCad (PCBNEW 9.0.6) date 2026-01-15 18:02:00*
%MOMM*%
%LPD*%
G01*
G04 APERTURE LIST*
G04 Aperture macros list*
%AMRotRect*
0 Rectangle, with rotation*
0 The origin of the aperture is its center*
0 $1 length*
0 $2 width*
0 $3 Rotation angle, in degrees counterclockwise*
0 Add horizontal line*
21,1,$1,$2,0,0,$3*%
G04 Aperture macros list end*
%TA.AperFunction,ComponentPad*%
%ADD10R,1.700000X1.700000*%
%TD*%
%TA.AperFunction,ComponentPad*%
%ADD11C,1.700000*%
%TD*%
%TA.AperFunction,ComponentPad*%
%ADD12RotRect,1.700000X1.700000X135.000000*%
%TD*%
%TA.AperFunction,ComponentPad*%
%ADD13RotRect,1.700000X1.700000X45.000000*%
%TD*%
%TA.AperFunction,ViaPad*%
%ADD14C,0.600000*%
%TD*%
%TA.AperFunction,Conductor*%
%ADD15C,0.200000*%
%TD*%
G04 APERTURE END LIST*
D10*
%TO.P,J2,1,VCC*%
%TO.N,Net-(HALL0-vcc)*%
X49460000Y-42000000D03*
D11*
%TO.P,J2,2,GND*%
%TO.N,Net-(HALL0-GND)*%
X52000000Y-42000000D03*
%TO.P,J2,3,A0*%
%TO.N,Net-(HALL0-OUT)*%
X54540000Y-42000000D03*
%TO.P,J2,4,A1*%
%TO.N,Net-(HALL1-OUT)*%
X57080000Y-42000000D03*
%TO.P,J2,5,A2*%
%TO.N,Net-(HALL2-OUT)*%
X59620000Y-42000000D03*
%TO.P,J2,6,A3*%
%TO.N,Net-(HALL3-OUT)*%
X62160000Y-42000000D03*
%TO.P,J2,7,A4*%
%TO.N,Net-(HALL4-OUT)*%
X64700000Y-42000000D03*
%TO.P,J2,8,A5*%
%TO.N,Net-(HALL5-OUT)*%
X67240000Y-42000000D03*
%TO.P,J2,9,A6*%
%TO.N,Net-(HALL6-OUT)*%
X69780000Y-42000000D03*
%TO.P,J2,10,A7*%
%TO.N,Net-(HALL7-OUT)*%
X72320000Y-42000000D03*
%TD*%
D12*
%TO.P,HALL0,1,vcc*%
%TO.N,Net-(HALL0-vcc)*%
X40703949Y-59296051D03*
D11*
%TO.P,HALL0,2,GND*%
%TO.N,Net-(HALL0-GND)*%
X42500000Y-57500000D03*
%TO.P,HALL0,3,OUT*%
%TO.N,Net-(HALL0-OUT)*%
X44296051Y-55703949D03*
%TD*%
D10*
%TO.P,HALL7,1,vcc*%
%TO.N,Net-(HALL0-vcc)*%
X38000000Y-70960000D03*
D11*
%TO.P,HALL7,2,GND*%
%TO.N,Net-(HALL0-GND)*%
X38000000Y-73500000D03*
%TO.P,HALL7,3,OUT*%
%TO.N,Net-(HALL7-OUT)*%
X38000000Y-76040000D03*
%TD*%
D10*
%TO.P,HALL5,1,vcc*%
%TO.N,Net-(HALL0-vcc)*%
X64040000Y-98500000D03*
D11*
%TO.P,HALL5,2,GND*%
%TO.N,Net-(HALL0-GND)*%
X61500000Y-98500000D03*
%TO.P,HALL5,3,OUT*%
%TO.N,Net-(HALL5-OUT)*%
X58960000Y-98500000D03*
%TD*%
D12*
%TO.P,HALL4,1,vcc*%
%TO.N,Net-(HALL0-vcc)*%
X76907898Y-93092102D03*
D11*
%TO.P,HALL4,2,GND*%
%TO.N,Net-(HALL0-GND)*%
X78703949Y-91296051D03*
%TO.P,HALL4,3,OUT*%
%TO.N,Net-(HALL4-OUT)*%
X80500000Y-89500000D03*
%TD*%
D13*
%TO.P,HALL2,1,vcc*%
%TO.N,Net-(HALL0-vcc)*%
X76500000Y-55000000D03*
D11*
%TO.P,HALL2,2,GND*%
%TO.N,Net-(HALL0-GND)*%
X78296051Y-56796051D03*
%TO.P,HALL2,3,OUT*%
%TO.N,Net-(HALL2-OUT)*%
X80092102Y-58592102D03*
%TD*%
D13*
%TO.P,HALL6,1,vcc*%
%TO.N,Net-(HALL0-vcc)*%
X43500000Y-91000000D03*
D11*
%TO.P,HALL6,2,GND*%
%TO.N,Net-(HALL0-GND)*%
X45296051Y-92796051D03*
%TO.P,HALL6,3,OUT*%
%TO.N,Net-(HALL6-OUT)*%
X47092102Y-94592102D03*
%TD*%
D10*
%TO.P,HALL3,1,vcc*%
%TO.N,Net-(HALL0-vcc)*%
X83000000Y-70460000D03*
D11*
%TO.P,HALL3,2,GND*%
%TO.N,Net-(HALL0-GND)*%
X83000000Y-73000000D03*
%TO.P,HALL3,3,OUT*%
%TO.N,Net-(HALL3-OUT)*%
X83000000Y-75540000D03*
%TD*%
D10*
%TO.P,HALL1,1,vcc*%
%TO.N,Net-(HALL0-vcc)*%
X57460000Y-53000000D03*
D11*
%TO.P,HALL1,2,GND*%
%TO.N,Net-(HALL0-GND)*%
X60000000Y-53000000D03*
%TO.P,HALL1,3,OUT*%
%TO.N,Net-(HALL1-OUT)*%
X62540000Y-53000000D03*
%TD*%
D14*
%TO.N,Net-(HALL5-OUT)*%
X67240000Y-45760000D03*
X69500000Y-51500000D03*
%TO.N,Net-(HALL1-OUT)*%
X59500000Y-47399000D03*
X59520000Y-49980000D03*
%TO.N,Net-(HALL0-OUT)*%
X51040000Y-45500000D03*
%TD*%
D15*
%TO.N,Net-(HALL0-vcc)*%
X40703949Y-56296051D02*
X50730000Y-46270000D01*
X50730000Y-46270000D02*
X53480000Y-49020000D01*
X40703949Y-59296051D02*
X40703949Y-56296051D01*
X33500000Y-64500000D02*
X38703949Y-59296051D01*
X38703949Y-59296051D02*
X40703949Y-59296051D01*
X35500000Y-81500000D02*
X35500000Y-71000000D01*
X43500000Y-89500000D02*
X35500000Y-81500000D01*
X35500000Y-71000000D02*
X35540000Y-70960000D01*
X35540000Y-70960000D02*
X38000000Y-70960000D01*
X43500000Y-91000000D02*
X43500000Y-89500000D01*
%TO.N,Net-(HALL5-OUT)*%
X67240000Y-42000000D02*
X67240000Y-45760000D01*
X71500000Y-53500000D02*
X69500000Y-51500000D01*
X75000000Y-57000000D02*
X71500000Y-53500000D01*
X75000000Y-60000000D02*
X75000000Y-59000000D01*
X78000000Y-63000000D02*
X75000000Y-60000000D01*
X64500000Y-96000000D02*
X72000000Y-88500000D01*
X60000000Y-96000000D02*
X64500000Y-96000000D01*
X78000000Y-84500000D02*
X78000000Y-63000000D01*
X72000000Y-88500000D02*
X73500000Y-88500000D01*
X73500000Y-88500000D02*
X74000000Y-88500000D01*
X58960000Y-97040000D02*
X60000000Y-96000000D01*
X75000000Y-59000000D02*
X75000000Y-57000000D01*
X58960000Y-98500000D02*
X58960000Y-97040000D01*
X74000000Y-88500000D02*
X78000000Y-84500000D01*
%TO.N,Net-(HALL4-OUT)*%
X64700000Y-45200000D02*
X66000000Y-46500000D01*
X64700000Y-45200000D02*
X64700000Y-42000000D01*
X72500000Y-46500000D02*
X66000000Y-46500000D01*
X85000000Y-59000000D02*
X72500000Y-46500000D01*
X85000000Y-85000000D02*
X85000000Y-59000000D01*
X80500000Y-89500000D02*
X85000000Y-85000000D01*
%TO.N,Net-(HALL3-OUT)*%
X84500000Y-74040000D02*
X83000000Y-75540000D01*
X64000000Y-47000000D02*
X71500000Y-47000000D01*
X84500000Y-60000000D02*
X84500000Y-74040000D01*
X64000000Y-43840000D02*
X64000000Y-47000000D01*
X71500000Y-47000000D02*
X84500000Y-60000000D01*
X62160000Y-42000000D02*
X64000000Y-43840000D01*
%TO.N,Net-(HALL2-OUT)*%
X80092102Y-56592102D02*
X80092102Y-58592102D01*
X71500000Y-48000000D02*
X80092102Y-56592102D01*
X62500000Y-44880000D02*
X62500000Y-48000000D01*
X62500000Y-48000000D02*
X71500000Y-48000000D01*
X59620000Y-42000000D02*
X62500000Y-44880000D01*
%TO.N,Net-(HALL1-OUT)*%
X59500000Y-44420000D02*
X59500000Y-47399000D01*
X59520000Y-49980000D02*
X59500000Y-49960000D01*
X57080000Y-42000000D02*
X59500000Y-44420000D01*
X62540000Y-53000000D02*
X59520000Y-49980000D01*
%TO.N,Net-(HALL0-OUT)*%
X51040000Y-45500000D02*
X51000000Y-45500000D01*
X54540000Y-42000000D02*
X51040000Y-45500000D01*
%TO.N,Net-(HALL0-vcc)*%
X53500000Y-49000000D02*
X53480000Y-49020000D01*
X70500000Y-49000000D02*
X53500000Y-49000000D01*
X53480000Y-49020000D02*
X57460000Y-53000000D01*
X76500000Y-55000000D02*
X70500000Y-49000000D01*
X79000000Y-62500000D02*
X79000000Y-70500000D01*
X76500000Y-60000000D02*
X79000000Y-62500000D01*
X76500000Y-55000000D02*
X76500000Y-60000000D01*
X79540000Y-70460000D02*
X83000000Y-70460000D01*
X79500000Y-70500000D02*
X79540000Y-70460000D01*
X79000000Y-84815796D02*
X79000000Y-70500000D01*
X73815796Y-90000000D02*
X79000000Y-84815796D01*
X79000000Y-70500000D02*
X79500000Y-70500000D01*
X72540000Y-90000000D02*
X73815796Y-90000000D01*
X73815796Y-90000000D02*
X76907898Y-93092102D01*
X64040000Y-98500000D02*
X72540000Y-90000000D01*
X38000000Y-69000000D02*
X33500000Y-64500000D01*
X38000000Y-70960000D02*
X38000000Y-69000000D01*
X49730000Y-45270000D02*
X50730000Y-46270000D01*
X49460000Y-45000000D02*
X49730000Y-45270000D01*
X49460000Y-42000000D02*
X49460000Y-45000000D01*
%TD*%
%TA.AperFunction,NonConductor*%
G36*
X63523352Y-34170996D02*
G01*
X73301805Y-34678228D01*
X73314932Y-34679614D01*
X77994877Y-35427402D01*
X78023907Y-35435770D01*
X80867577Y-36647444D01*
X80896439Y-36664699D01*
X84268656Y-39363241D01*
X84291880Y-39387702D01*
X85984306Y-41743411D01*
X86339899Y-42238365D01*
X86353116Y-42261748D01*
X86831729Y-43375233D01*
X90569057Y-52070059D01*
X90586313Y-52110203D01*
X90591527Y-52124781D01*
X92308525Y-58073690D01*
X93390015Y-61820743D01*
X93393720Y-61838221D01*
X94492948Y-69824637D01*
X94494100Y-69842756D01*
X94409543Y-78501783D01*
X94407651Y-78522187D01*
X92544689Y-89046046D01*
X92539305Y-89066299D01*
X88212404Y-101128501D01*
X88204626Y-101145862D01*
X84847546Y-107320582D01*
X84827884Y-107347408D01*
X82963501Y-109281611D01*
X82944529Y-109297699D01*
X80837954Y-110747671D01*
X80810414Y-110761920D01*
X77023842Y-112153221D01*
X76993983Y-112160155D01*
X68976572Y-112999217D01*
X68965159Y-112999882D01*
X54910538Y-113169257D01*
X54900337Y-113168960D01*
X45309300Y-112493871D01*
X45291256Y-112491257D01*
X41562995Y-111667542D01*
X41534548Y-111657499D01*
X39704319Y-110747671D01*
X38765227Y-110280837D01*
X38739736Y-110263954D01*
X36376968Y-108238853D01*
X36356624Y-108216585D01*
X33966836Y-104857439D01*
X33952157Y-104830113D01*
X33074954Y-102551885D01*
X33074943Y-102551857D01*
X33058960Y-102510348D01*
X37369525Y-102510348D01*
X37369525Y-102829715D01*
X37400828Y-103147554D01*
X37463134Y-103460786D01*
X37555845Y-103766414D01*
X37678065Y-104061478D01*
X37678067Y-104061483D01*
X37828609Y-104343126D01*
X37828626Y-104343154D01*
X38006037Y-104608670D01*
X38006054Y-104608693D01*
X38208663Y-104855572D01*
X38434484Y-105081393D01*
X38434489Y-105081397D01*
X38434490Y-105081398D01*
X38681369Y-105284007D01*
X38681376Y-105284012D01*
X38681386Y-105284019D01*
X38946902Y-105461430D01*
X38946907Y-105461433D01*
X38946919Y-105461441D01*
X38946928Y-105461445D01*
X38946930Y-105461447D01*
X39228573Y-105611989D01*
X39228575Y-105611989D01*
X39228581Y-105611993D01*
X39523644Y-105734212D01*
X39829265Y-105826921D01*
X40142502Y-105889228D01*
X40460338Y-105920532D01*
X40460341Y-105920532D01*
X40779709Y-105920532D01*
X40779712Y-105920532D01*
X41097548Y-105889228D01*
X41410785Y-105826921D01*
X41716406Y-105734212D01*
X42011469Y-105611993D01*
X42293131Y-105461441D01*
X42558681Y-105284007D01*
X42805560Y-105081398D01*
X43031391Y-104855567D01*
X43234000Y-104608688D01*
X43411434Y-104343138D01*
X43561986Y-104061476D01*
X43684205Y-103766413D01*
X43776914Y-103460792D01*
X43839221Y-103147555D01*
X43870525Y-102829719D01*
X43870525Y-102510348D01*
X77369525Y-102510348D01*
X77369525Y-102829715D01*
X77400828Y-103147554D01*
X77463134Y-103460786D01*
X77555845Y-103766414D01*
X77678065Y-104061478D01*
X77678067Y-104061483D01*
X77828609Y-104343126D01*
X77828626Y-104343154D01*
X78006037Y-104608670D01*
X78006054Y-104608693D01*
X78208663Y-104855572D01*
X78434484Y-105081393D01*
X78434489Y-105081397D01*
X78434490Y-105081398D01*
X78681369Y-105284007D01*
X78681376Y-105284012D01*
X78681386Y-105284019D01*
X78946902Y-105461430D01*
X78946907Y-105461433D01*
X78946919Y-105461441D01*
X78946928Y-105461445D01*
X78946930Y-105461447D01*
X79228573Y-105611989D01*
X79228575Y-105611989D01*
X79228581Y-105611993D01*
X79523644Y-105734212D01*
X79829265Y-105826921D01*
X80142502Y-105889228D01*
X80460338Y-105920532D01*
X80460341Y-105920532D01*
X80779709Y-105920532D01*
X80779712Y-105920532D01*
X81097548Y-105889228D01*
X81410785Y-105826921D01*
X81716406Y-105734212D01*
X82011469Y-105611993D01*
X82293131Y-105461441D01*
X82558681Y-105284007D01*
X82805560Y-105081398D01*
X83031391Y-104855567D01*
X83234000Y-104608688D01*
X83411434Y-104343138D01*
X83561986Y-104061476D01*
X83684205Y-103766413D01*
X83776914Y-103460792D01*
X83839221Y-103147555D01*
X83870525Y-102829719D01*
X83870525Y-102510345D01*
X83839221Y-102192509D01*
X83776914Y-101879272D01*
X83684205Y-101573651D01*
X83561986Y-101278588D01*
X83486562Y-101137481D01*
X83411440Y-100996937D01*
X83411438Y-100996935D01*
X83411434Y-100996926D01*
X83411423Y-100996909D01*
X83234012Y-100731393D01*
X83234005Y-100731383D01*
X83234000Y-100731376D01*
X83031391Y-100484497D01*
X83031390Y-100484496D01*
X83031386Y-100484491D01*
X82805565Y-100258670D01*
X82558686Y-100056061D01*
X82558663Y-100056044D01*
X82293147Y-99878633D01*
X82293119Y-99878616D01*
X82011476Y-99728074D01*
X82011471Y-99728072D01*
X81961919Y-99707547D01*
X81835176Y-99655048D01*
X81716407Y-99605852D01*
X81410779Y-99513141D01*
X81097546Y-99450835D01*
X81097547Y-99450835D01*
X80858166Y-99427259D01*
X80779712Y-99419532D01*
X80460338Y-99419532D01*
X80387847Y-99426671D01*
X80142502Y-99450835D01*
X79829270Y-99513141D01*
X79523642Y-99605852D01*
X79228578Y-99728072D01*
X79228573Y-99728074D01*
X78946930Y-99878616D01*
X78946902Y-99878633D01*
X78681386Y-100056044D01*
X78681363Y-100056061D01*
X78434484Y-100258670D01*
X78208663Y-100484491D01*
X78006054Y-100731370D01*
X78006037Y-100731393D01*
X77828626Y-100996909D01*
X77828609Y-100996937D01*
X77678067Y-101278580D01*
X77678065Y-101278585D01*
X77555845Y-101573649D01*
X77463134Y-101879277D01*
X77400828Y-102192509D01*
X77369525Y-102510348D01*
X43870525Y-102510348D01*
X43870525Y-102510345D01*
X43839221Y-102192509D01*
X43776914Y-101879272D01*
X43684205Y-101573651D01*
X43561986Y-101278588D01*
X43486562Y-101137481D01*
X43411440Y-100996937D01*
X43411438Y-100996935D01*
X43411434Y-100996926D01*
X43411423Y-100996909D01*
X43234012Y-100731393D01*
X43234005Y-100731383D01*
X43234000Y-100731376D01*
X43031391Y-100484497D01*
X43031390Y-100484496D01*
X43031386Y-100484491D01*
X42805565Y-100258670D01*
X42558686Y-100056061D01*
X42558663Y-100056044D01*
X42293147Y-99878633D01*
X42293119Y-99878616D01*
X42011476Y-99728074D01*
X42011471Y-99728072D01*
X41961919Y-99707547D01*
X41835176Y-99655048D01*
X41716407Y-99605852D01*
X41410779Y-99513141D01*
X41097546Y-99450835D01*
X41097547Y-99450835D01*
X40858166Y-99427259D01*
X40779712Y-99419532D01*
X40460338Y-99419532D01*
X40387847Y-99426671D01*
X40142502Y-99450835D01*
X39829270Y-99513141D01*
X39523642Y-99605852D01*
X39228578Y-99728072D01*
X39228573Y-99728074D01*
X38946930Y-99878616D01*
X38946902Y-99878633D01*
X38681386Y-100056044D01*
X38681363Y-100056061D01*
X38434484Y-100258670D01*
X38208663Y-100484491D01*
X38006054Y-100731370D01*
X38006037Y-100731393D01*
X37828626Y-100996909D01*
X37828609Y-100996937D01*
X37678067Y-101278580D01*
X37678065Y-101278585D01*
X37555845Y-101573649D01*
X37463134Y-101879277D01*
X37400828Y-102192509D01*
X37369525Y-102510348D01*
X33058960Y-102510348D01*
X31979778Y-99707547D01*
X29803764Y-94056104D01*
X29799309Y-94042113D01*
X29468577Y-92741776D01*
X27936036Y-86716287D01*
X27933336Y-86702381D01*
X26747041Y-77940818D01*
X26745926Y-77923016D01*
X26753943Y-77070104D01*
X26830588Y-68916400D01*
X26832039Y-68898630D01*
X27500451Y-64579054D01*
X32899498Y-64579054D01*
X32899499Y-64579057D01*
X32940423Y-64731785D01*
X33019481Y-64868716D01*
X33019483Y-64868718D01*
X37363181Y-69212416D01*
X37377884Y-69239343D01*
X37394477Y-69265162D01*
X37395368Y-69271362D01*
X37396666Y-69273739D01*
X37399500Y-69300097D01*
X37399500Y-69485500D01*
X37379815Y-69552539D01*
X37327011Y-69598294D01*
X37275501Y-69609500D01*
X37102130Y-69609500D01*
X37102123Y-69609501D01*
X37042516Y-69615908D01*
X36907671Y-69666202D01*
X36907664Y-69666206D01*
X36792455Y-69752452D01*
X36792452Y-69752455D01*
X36706206Y-69867664D01*
X36706202Y-69867671D01*
X36655908Y-70002517D01*
X36649501Y-70062116D01*
X36649501Y-70062123D01*
X36649500Y-70062135D01*
X36649500Y-70235500D01*
X36629815Y-70302539D01*
X36577011Y-70348294D01*
X36525500Y-70359500D01*
X35626670Y-70359500D01*
X35626654Y-70359499D01*
X35619058Y-70359499D01*
X35460943Y-70359499D01*
X35351659Y-70388782D01*
X35311664Y-70399499D01*
X35311663Y-70399498D01*
X35308217Y-70400422D01*
X35308213Y-70400423D01*
X35171290Y-70479475D01*
X35171282Y-70479481D01*
X35019481Y-70631282D01*
X35019475Y-70631290D01*
X34984551Y-70691782D01*
X34984551Y-70691784D01*
X34940423Y-70768214D01*
X34940423Y-70768215D01*
X34899499Y-70920943D01*
X34899499Y-70920945D01*
X34899499Y-71089046D01*
X34899500Y-71089059D01*
X34899500Y-81413330D01*
X34899499Y-81413348D01*
X34899499Y-81579054D01*
X34899498Y-81579054D01*
X34940423Y-81731785D01*
X34969358Y-81781900D01*
X34969359Y-81781904D01*
X34969360Y-81781904D01*
X35019479Y-81868714D01*
X35019481Y-81868717D01*
X35138349Y-81987585D01*
X35138355Y-81987590D01*
X42782753Y-89631988D01*
X42816238Y-89693311D01*
X42811254Y-89763003D01*
X42782753Y-89807350D01*
X41910165Y-90679940D01*
X41910156Y-90679950D01*
X41872540Y-90726626D01*
X41812753Y-90857540D01*
X41812752Y-90857544D01*
X41792272Y-91000000D01*
X41812752Y-91142455D01*
X41812753Y-91142459D01*
X41872539Y-91273370D01*
X41872540Y-91273371D01*
X41872541Y-91273373D01*
X41910160Y-91320056D01*
X41910163Y-91320059D01*
X41910168Y-91320065D01*
X42997748Y-92407642D01*
X43179944Y-92589838D01*
X43179948Y-92589841D01*
X43179950Y-92589843D01*
X43226626Y-92627459D01*
X43357540Y-92687246D01*
X43357541Y-92687246D01*
X43357543Y-92687247D01*
X43500000Y-92707728D01*
X43642457Y-92687247D01*
X43665344Y-92676794D01*
X43770039Y-92628982D01*
X43839198Y-92619038D01*
X43902753Y-92648063D01*
X43940528Y-92706841D01*
X43945551Y-92741776D01*
X43945551Y-92902337D01*
X43978803Y-93112286D01*
X43978805Y-93112294D01*
X44031625Y-93274857D01*
X44044495Y-93314465D01*
X44141002Y-93503871D01*
X44265941Y-93675837D01*
X44416264Y-93826160D01*
X44588230Y-93951099D01*
X44588232Y-93951100D01*
X44588235Y-93951102D01*
X44777639Y-94047608D01*
X44979808Y-94113297D01*
X45189764Y-94146551D01*
X45189765Y-94146551D01*
X45402337Y-94146551D01*
X45402338Y-94146551D01*
X45612294Y-94113297D01*
X45621641Y-94110259D01*
X45691476Y-94108259D01*
X45751312Y-94144334D01*
X45782145Y-94207033D01*
X45777897Y-94266496D01*
X45774857Y-94275853D01*
X45774855Y-94275861D01*
X45741602Y-94485815D01*
X45741602Y-94698389D01*
X45751636Y-94761746D01*
X45774855Y-94908341D01*
X45840546Y-95110516D01*
X45937053Y-95299922D01*
X46061992Y-95471888D01*
X46212315Y-95622211D01*
X46384281Y-95747150D01*
X46384283Y-95747151D01*
X46384286Y-95747153D01*
X46573690Y-95843659D01*
X46775859Y-95909348D01*
X46985815Y-95942602D01*
X46985816Y-95942602D01*
X47198388Y-95942602D01*
X47198389Y-95942602D01*
X47408345Y-95909348D01*
X47610514Y-95843659D01*
X47799918Y-95747153D01*
X47821891Y-95731188D01*
X47971888Y-95622211D01*
X47971890Y-95622208D01*
X47971894Y-95622206D01*
X48122206Y-95471894D01*
X48122208Y-95471890D01*
X48122211Y-95471888D01*
X48247150Y-95299922D01*
X48247149Y-95299922D01*
X48247153Y-95299918D01*
X48343659Y-95110514D01*
X48409348Y-94908345D01*
X48442602Y-94698389D01*
X48442602Y-94485815D01*
X48409348Y-94275859D01*
X48343659Y-94073690D01*
X48247153Y-93884286D01*
X48247151Y-93884283D01*
X48247150Y-93884281D01*
X48122211Y-93712315D01*
X47971888Y-93561992D01*
X47799922Y-93437053D01*
X47610516Y-93340546D01*
X47610515Y-93340545D01*
X47610514Y-93340545D01*
X47408345Y-93274856D01*
X47408343Y-93274855D01*
X47408342Y-93274855D01*
X47247059Y-93249310D01*
X47198389Y-93241602D01*
X46985815Y-93241602D01*
X46946304Y-93247859D01*
X46775861Y-93274855D01*
X46775853Y-93274857D01*
X46766496Y-93277897D01*
X46696655Y-93279887D01*
X46636825Y-93243801D01*
X46606002Y-93181097D01*
X46610259Y-93121642D01*
X46613297Y-93112294D01*
X46646551Y-92902338D01*
X46646551Y-92689764D01*
X46613297Y-92479808D01*
X46547608Y-92277639D01*
X46451102Y-92088235D01*
X46451100Y-92088232D01*
X46451099Y-92088230D01*
X46326160Y-91916264D01*
X46175837Y-91765941D01*
X46003871Y-91641002D01*
X45814465Y-91544495D01*
X45814464Y-91544494D01*
X45814463Y-91544494D01*
X45612294Y-91478805D01*
X45612292Y-91478804D01*
X45612291Y-91478804D01*
X45451008Y-91453259D01*
X45402338Y-91445551D01*
X45241776Y-91445551D01*
X45174737Y-91425866D01*
X45128982Y-91373062D01*
X45119038Y-91303904D01*
X45128982Y-91270039D01*
X45187246Y-91142459D01*
X45187245Y-91142459D01*
X45187247Y-91142457D01*
X45207728Y-91000000D01*
X45187247Y-90857543D01*
X45167456Y-90814208D01*
X45127460Y-90726629D01*
X45127459Y-90726628D01*
X45127459Y-90726627D01*
X45089840Y-90679944D01*
X45089835Y-90679939D01*
X45089831Y-90679934D01*
X44136819Y-89726923D01*
X44103334Y-89665600D01*
X44100500Y-89639242D01*
X44100500Y-89420944D01*
X44100500Y-89420943D01*
X44094754Y-89399500D01*
X44087531Y-89372541D01*
X44059577Y-89268216D01*
X44010815Y-89183757D01*
X43980524Y-89131290D01*
X43980521Y-89131286D01*
X43980520Y-89131284D01*
X43868716Y-89019480D01*
X43868715Y-89019479D01*
X43864385Y-89015149D01*
X43864374Y-89015139D01*
X36136819Y-81287584D01*
X36103334Y-81226261D01*
X36100500Y-81199903D01*
X36100500Y-71684500D01*
X36120185Y-71617461D01*
X36172989Y-71571706D01*
X36224500Y-71560500D01*
X36525501Y-71560500D01*
X36592540Y-71580185D01*
X36638295Y-71632989D01*
X36649501Y-71684500D01*
X36649501Y-71857876D01*
X36655908Y-71917483D01*
X36706202Y-72052328D01*
X36706206Y-72052335D01*
X36792452Y-72167544D01*
X36792455Y-72167547D01*
X36907664Y-72253793D01*
X36907671Y-72253797D01*
X37039082Y-72302810D01*
X37095016Y-72344681D01*
X37119433Y-72410145D01*
X37104582Y-72478418D01*
X37083431Y-72506673D01*
X36969889Y-72620215D01*
X36844951Y-72792179D01*
X36748444Y-72981585D01*
X36682753Y-73183760D01*
X36665031Y-73295653D01*
X36649500Y-73393713D01*
X36649500Y-73606287D01*
X36682754Y-73816243D01*
X36703402Y-73879792D01*
X36748444Y-74018414D01*
X36844951Y-74207820D01*
X36969890Y-74379786D01*
X37120213Y-74530109D01*
X37292182Y-74655050D01*
X37300946Y-74659516D01*
X37351742Y-74707491D01*
X37368536Y-74775312D01*
X37345998Y-74841447D01*
X37300946Y-74880484D01*
X37292182Y-74884949D01*
X37120213Y-75009890D01*
X36969890Y-75160213D01*
X36844951Y-75332179D01*
X36748444Y-75521585D01*
X36748443Y-75521587D01*
X36748443Y-75521588D01*
X36715598Y-75622672D01*
X36682753Y-75723760D01*
X36661771Y-75856239D01*
X36649500Y-75933713D01*
X36649500Y-76146287D01*
X36659534Y-76209644D01*
X36671399Y-76284555D01*
X36682754Y-76356243D01*
X36703402Y-76419792D01*
X36748444Y-76558414D01*
X36844951Y-76747820D01*
X36969890Y-76919786D01*
X37120213Y-77070109D01*
X37292179Y-77195048D01*
X37292181Y-77195049D01*
X37292184Y-77195051D01*
X37481588Y-77291557D01*
X37683757Y-77357246D01*
X37893713Y-77390500D01*
X37893714Y-77390500D01*
X38106286Y-77390500D01*
X38106287Y-77390500D01*
X38316243Y-77357246D01*
X38518412Y-77291557D01*
X38707816Y-77195051D01*
X38729789Y-77179086D01*
X38879786Y-77070109D01*
X38879788Y-77070106D01*
X38879792Y-77070104D01*
X39030104Y-76919792D01*
X39030106Y-76919788D01*
X39030109Y-76919786D01*
X39155048Y-76747820D01*
X39155047Y-76747820D01*
X39155051Y-76747816D01*
X39251557Y-76558412D01*
X39317246Y-76356243D01*
X39350500Y-76146287D01*
X39350500Y-75933713D01*
X39317246Y-75723757D01*
X39251557Y-75521588D01*
X39155051Y-75332184D01*
X39155049Y-75332181D01*
X39155048Y-75332179D01*
X39030109Y-75160213D01*
X38879786Y-75009890D01*
X38707820Y-74884951D01*
X38707115Y-74884591D01*
X38699054Y-74880485D01*
X38648259Y-74832512D01*
X38631463Y-74764692D01*
X38653999Y-74698556D01*
X38699054Y-74659515D01*
X38707816Y-74655051D01*
X38729789Y-74639086D01*
X38879786Y-74530109D01*
X38879788Y-74530106D01*
X38879792Y-74530104D01*
X39030104Y-74379792D01*
X39030106Y-74379788D01*
X39030109Y-74379786D01*
X39155048Y-74207820D01*
X39155047Y-74207820D01*
X39155051Y-74207816D01*
X39251557Y-74018412D01*
X39317246Y-73816243D01*
X39350500Y-73606287D01*
X39350500Y-73393713D01*
X39334969Y-73295653D01*
X45369525Y-73295653D01*
X45369525Y-74044411D01*
X45384117Y-74341447D01*
X45406264Y-74792270D01*
X45479653Y-75537405D01*
X45589520Y-76278071D01*
X45735596Y-77012443D01*
X45781337Y-77195051D01*
X45917530Y-77738760D01*
X45976135Y-77931956D01*
X46134887Y-78455294D01*
X46387123Y-79160245D01*
X46673656Y-79851999D01*
X46673662Y-79852014D01*
X46673666Y-79852024D01*
X46673668Y-79852027D01*
X46993803Y-80528896D01*
X46993808Y-80528905D01*
X46993814Y-80528918D01*
X47346760Y-81189232D01*
X47346778Y-81189264D01*
X47701994Y-81781904D01*
X47731704Y-81831472D01*
X48147691Y-82454041D01*
X48593725Y-83055448D01*
X48593729Y-83055453D01*
X48593736Y-83055461D01*
X49068735Y-83634251D01*
X49571561Y-84189033D01*
X50101023Y-84718495D01*
X50655805Y-85221321D01*
X51028628Y-85527288D01*
X51234609Y-85696332D01*
X51836016Y-86142366D01*
X52458585Y-86558353D01*
X52458592Y-86558357D01*
X53100792Y-86943278D01*
X53100802Y-86943283D01*
X53100816Y-86943292D01*
X53139846Y-86964154D01*
X53761138Y-87296242D01*
X53761142Y-87296244D01*
X53761161Y-87296254D01*
X54438030Y-87616389D01*
X55129792Y-87902926D01*
X55129807Y-87902931D01*
X55129811Y-87902933D01*
X55834762Y-88155169D01*
X55834770Y-88155171D01*
X55834780Y-88155175D01*
X56551297Y-88372527D01*
X57277615Y-88554461D01*
X58011985Y-88700536D01*
X58752639Y-88810402D01*
X59497791Y-88883793D01*
X60245646Y-88920532D01*
X60245660Y-88920532D01*
X60994390Y-88920532D01*
X60994404Y-88920532D01*
X61742259Y-88883793D01*
X62487411Y-88810402D01*
X63228065Y-88700536D01*
X63962435Y-88554461D01*
X64688753Y-88372527D01*
X65405270Y-88155175D01*
X66110258Y-87902926D01*
X66802020Y-87616389D01*
X67478889Y-87296254D01*
X68139234Y-86943292D01*
X68781465Y-86558353D01*
X69404034Y-86142366D01*
X70005441Y-85696332D01*
X70542529Y-85255554D01*
X70584244Y-85221321D01*
X70888421Y-84945629D01*
X71139032Y-84718490D01*
X71668483Y-84189039D01*
X71895622Y-83938428D01*
X72171314Y-83634251D01*
X72205547Y-83592536D01*
X72646325Y-83055448D01*
X73092359Y-82454041D01*
X73508346Y-81831472D01*
X73893285Y-81189241D01*
X74246247Y-80528896D01*
X74566382Y-79852027D01*
X74852919Y-79160265D01*
X75105168Y-78455277D01*
X75322520Y-77738760D01*
X75504454Y-77012442D01*
X75650529Y-76278072D01*
X75760395Y-75537418D01*
X75833786Y-74792266D01*
X75870525Y-74044411D01*
X75870525Y-73295653D01*
X75833786Y-72547798D01*
X75760395Y-71802646D01*
X75650529Y-71061992D01*
X75504454Y-70327622D01*
X75322520Y-69601304D01*
X75105168Y-68884787D01*
X75084061Y-68825798D01*
X74852926Y-68179818D01*
X74852924Y-68179814D01*
X74852919Y-68179799D01*
X74566382Y-67488037D01*
X74246247Y-66811168D01*
X73893285Y-66150823D01*
X73508346Y-65508592D01*
X73092359Y-64886023D01*
X72646325Y-64284616D01*
X72477281Y-64078635D01*
X72171314Y-63705812D01*
X71668488Y-63151030D01*
X71139026Y-62621568D01*
X70584244Y-62118742D01*
X70057232Y-61686236D01*
X70005441Y-61643732D01*
X69404034Y-61197698D01*
X68781465Y-60781711D01*
X68781457Y-60781706D01*
X68139257Y-60396785D01*
X68139225Y-60396767D01*
X67478911Y-60043821D01*
X67478898Y-60043815D01*
X67478889Y-60043810D01*
X66802020Y-59723675D01*
X66802017Y-59723673D01*
X66802007Y-59723669D01*
X66801992Y-59723663D01*
X66194166Y-59471894D01*
X66110258Y-59437138D01*
X66110252Y-59437136D01*
X66110238Y-59437130D01*
X65405287Y-59184894D01*
X65160087Y-59110514D01*
X64688753Y-58967537D01*
X64688745Y-58967535D01*
X64688746Y-58967535D01*
X63962436Y-58785603D01*
X63228064Y-58639527D01*
X62487398Y-58529660D01*
X61742260Y-58456271D01*
X61742266Y-58456271D01*
X61492974Y-58444024D01*
X60994404Y-58419532D01*
X60245646Y-58419532D01*
X59694594Y-58446602D01*
X59497786Y-58456271D01*
X58752651Y-58529660D01*
X58011985Y-58639527D01*
X57277613Y-58785603D01*
X56551304Y-58967535D01*
X55834762Y-59184894D01*
X55129811Y-59437130D01*
X54438057Y-59723663D01*
X54438042Y-59723669D01*
X53761138Y-60043821D01*
X53100824Y-60396767D01*
X53100792Y-60396785D01*
X52458592Y-60781706D01*
X52458581Y-60781713D01*
X51836033Y-61197686D01*
X51836024Y-61197692D01*
X51836016Y-61197698D01*
X51490363Y-61454051D01*
X51234603Y-61643736D01*
X51234595Y-61643743D01*
X50655805Y-62118742D01*
X50101023Y-62621568D01*
X49571561Y-63151030D01*
X49068735Y-63705812D01*
X48593736Y-64284602D01*
X48593729Y-64284610D01*
X48593725Y-64284616D01*
X48147691Y-64886023D01*
X48147685Y-64886031D01*
X48147679Y-64886040D01*
X47731706Y-65508588D01*
X47731699Y-65508599D01*
X47346778Y-66150799D01*
X47346760Y-66150831D01*
X46993814Y-66811145D01*
X46673662Y-67488049D01*
X46673656Y-67488064D01*
X46387123Y-68179818D01*
X46134887Y-68884769D01*
X46023352Y-69252454D01*
X45929418Y-69562116D01*
X45917528Y-69601311D01*
X45735596Y-70327620D01*
X45589520Y-71061992D01*
X45479653Y-71802658D01*
X45406264Y-72547793D01*
X45402706Y-72620215D01*
X45369525Y-73295653D01*
X39334969Y-73295653D01*
X39317246Y-73183757D01*
X39251557Y-72981588D01*
X39155051Y-72792184D01*
X39155049Y-72792181D01*
X39155048Y-72792179D01*
X39030109Y-72620213D01*
X38916569Y-72506673D01*
X38883084Y-72445350D01*
X38888068Y-72375658D01*
X38929940Y-72319725D01*
X38960915Y-72302810D01*
X39092331Y-72253796D01*
X39207546Y-72167546D01*
X39293796Y-72052331D01*
X39344091Y-71917483D01*
X39350500Y-71857873D01*
X39350499Y-70062128D01*
X39344091Y-70002517D01*
X39293796Y-69867669D01*
X39293795Y-69867668D01*
X39293793Y-69867664D01*
X39207547Y-69752455D01*
X39207544Y-69752452D01*
X39092335Y-69666206D01*
X39092328Y-69666202D01*
X38957482Y-69615908D01*
X38957483Y-69615908D01*
X38897883Y-69609501D01*
X38897881Y-69609500D01*
X38897873Y-69609500D01*
X38897865Y-69609500D01*
X38724500Y-69609500D01*
X38657461Y-69589815D01*
X38611706Y-69537011D01*
X38600500Y-69485500D01*
X38600500Y-69089059D01*
X38600501Y-69089046D01*
X38600501Y-68920945D01*
X38600501Y-68920943D01*
X38559577Y-68768215D01*
X38507397Y-68677837D01*
X38480520Y-68631284D01*
X38368716Y-68519480D01*
X38368713Y-68519478D01*
X34436916Y-64587681D01*
X34403431Y-64526358D01*
X34408415Y-64456666D01*
X34436916Y-64412319D01*
X38916365Y-59932870D01*
X38977688Y-59899385D01*
X39004046Y-59896551D01*
X39343191Y-59896551D01*
X39410230Y-59916236D01*
X39430872Y-59932870D01*
X40383893Y-60885889D01*
X40383897Y-60885892D01*
X40383899Y-60885894D01*
X40430575Y-60923510D01*
X40561489Y-60983297D01*
X40561490Y-60983297D01*
X40561492Y-60983298D01*
X40703949Y-61003779D01*
X40846406Y-60983298D01*
X40977322Y-60923510D01*
X41024005Y-60885891D01*
X42293787Y-59616107D01*
X42331408Y-59569424D01*
X42391196Y-59438508D01*
X42411677Y-59296051D01*
X42391196Y-59153594D01*
X42357158Y-59079061D01*
X42332931Y-59026012D01*
X42322987Y-58956853D01*
X42352012Y-58893298D01*
X42410790Y-58855523D01*
X42445725Y-58850500D01*
X42606286Y-58850500D01*
X42606287Y-58850500D01*
X42816243Y-58817246D01*
X43018412Y-58751557D01*
X43207816Y-58655051D01*
X43229789Y-58639086D01*
X43379786Y-58530109D01*
X43379788Y-58530106D01*
X43379792Y-58530104D01*
X43530104Y-58379792D01*
X43530106Y-58379788D01*
X43530109Y-58379786D01*
X43655048Y-58207820D01*
X43655047Y-58207820D01*
X43655051Y-58207816D01*
X43751557Y-58018412D01*
X43817246Y-57816243D01*
X43850500Y-57606287D01*
X43850500Y-57393713D01*
X43817246Y-57183757D01*
X43814207Y-57174406D01*
X43812209Y-57104568D01*
X43848287Y-57044734D01*
X43910987Y-57013903D01*
X43970457Y-57018156D01*
X43979808Y-57021195D01*
X44189764Y-57054449D01*
X44189765Y-57054449D01*
X44402337Y-57054449D01*
X44402338Y-57054449D01*
X44612294Y-57021195D01*
X44814463Y-56955506D01*
X45003867Y-56859000D01*
X45117333Y-56776563D01*
X45175837Y-56734058D01*
X45175839Y-56734055D01*
X45175843Y-56734053D01*
X45326155Y-56583741D01*
X45326157Y-56583737D01*
X45326160Y-56583735D01*
X45451099Y-56411769D01*
X45451098Y-56411769D01*
X45451102Y-56411765D01*
X45547608Y-56222361D01*
X45613297Y-56020192D01*
X45646551Y-55810236D01*
X45646551Y-55597662D01*
X45613297Y-55387706D01*
X45547608Y-55185537D01*
X45451102Y-54996133D01*
X45451100Y-54996130D01*
X45451099Y-54996128D01*
X45326160Y-54824162D01*
X45175837Y-54673839D01*
X45003871Y-54548900D01*
X44814465Y-54452393D01*
X44814464Y-54452392D01*
X44814463Y-54452392D01*
X44612294Y-54386703D01*
X44612292Y-54386702D01*
X44612291Y-54386702D01*
X44451008Y-54361157D01*
X44402338Y-54353449D01*
X44189764Y-54353449D01*
X44141093Y-54361157D01*
X43979811Y-54386702D01*
X43777633Y-54452394D01*
X43698828Y-54492547D01*
X43630159Y-54505443D01*
X43565419Y-54479166D01*
X43525162Y-54422060D01*
X43522170Y-54352254D01*
X43554851Y-54294383D01*
X50642319Y-47206916D01*
X50703642Y-47173431D01*
X50773334Y-47178415D01*
X50817681Y-47206916D01*
X56073181Y-52462416D01*
X56106666Y-52523739D01*
X56109500Y-52550097D01*
X56109500Y-53897870D01*
X56109501Y-53897876D01*
X56115908Y-53957483D01*
X56166202Y-54092328D01*
X56166206Y-54092335D01*
X56252452Y-54207544D01*
X56252455Y-54207547D01*
X56367664Y-54293793D01*
X56367671Y-54293797D01*
X56502517Y-54344091D01*
X56502516Y-54344091D01*
X56509444Y-54344835D01*
X56562127Y-54350500D01*
X58357872Y-54350499D01*
X58417483Y-54344091D01*
X58552331Y-54293796D01*
X58667546Y-54207546D01*
X58753796Y-54092331D01*
X58802810Y-53960916D01*
X58844681Y-53904984D01*
X58910145Y-53880566D01*
X58978418Y-53895417D01*
X59006673Y-53916569D01*
X59120213Y-54030109D01*
X59292179Y-54155048D01*
X59292181Y-54155049D01*
X59292184Y-54155051D01*
X59481588Y-54251557D01*
X59683757Y-54317246D01*
X59893713Y-54350500D01*
X59893714Y-54350500D01*
X60106286Y-54350500D01*
X60106287Y-54350500D01*
X60316243Y-54317246D01*
X60518412Y-54251557D01*
X60707816Y-54155051D01*
X60794138Y-54092335D01*
X60879786Y-54030109D01*
X60879788Y-54030106D01*
X60879792Y-54030104D01*
X61030104Y-53879792D01*
X61030106Y-53879788D01*
X61030109Y-53879786D01*
X61155048Y-53707820D01*
X61155047Y-53707820D01*
X61155051Y-53707816D01*
X61159514Y-53699054D01*
X61207488Y-53648259D01*
X61275308Y-53631463D01*
X61341444Y-53653999D01*
X61380486Y-53699056D01*
X61384951Y-53707820D01*
X61509890Y-53879786D01*
X61660213Y-54030109D01*
X61832179Y-54155048D01*
X61832181Y-54155049D01*
X61832184Y-54155051D01*
X62021588Y-54251557D01*
X62223757Y-54317246D01*
X62433713Y-54350500D01*
X62433714Y-54350500D01*
X62646286Y-54350500D01*
X62646287Y-54350500D01*
X62856243Y-54317246D01*
X63058412Y-54251557D01*
X63247816Y-54155051D01*
X63334138Y-54092335D01*
X63419786Y-54030109D01*
X63419788Y-54030106D01*
X63419792Y-54030104D01*
X63570104Y-53879792D01*
X63570106Y-53879788D01*
X63570109Y-53879786D01*
X63695048Y-53707820D01*
X63695047Y-53707820D01*
X63695051Y-53707816D01*
X63791557Y-53518412D01*
X63857246Y-53316243D01*
X63890500Y-53106287D01*
X63890500Y-52893713D01*
X63857246Y-52683757D01*
X63791557Y-52481588D01*
X63695051Y-52292184D01*
X63695049Y-52292181D01*
X63695048Y-52292179D01*
X63570109Y-52120213D01*
X63419786Y-51969890D01*
X63247820Y-51844951D01*
X63058414Y-51748444D01*
X63058413Y-51748443D01*
X63058412Y-51748443D01*
X62856243Y-51682754D01*
X62856241Y-51682753D01*
X62856240Y-51682753D01*
X62694957Y-51657208D01*
X62646287Y-51649500D01*
X62433713Y-51649500D01*
X62405006Y-51654046D01*
X62223757Y-51682753D01*
X62181473Y-51696492D01*
X62111632Y-51698486D01*
X62055476Y-51666241D01*
X60354574Y-49965339D01*
X60345511Y-49948743D01*
X60332379Y-49935133D01*
X60321974Y-49905637D01*
X60321089Y-49904016D01*
X60320638Y-49901849D01*
X60290173Y-49748691D01*
X60296400Y-49679100D01*
X60339263Y-49623922D01*
X60405153Y-49600678D01*
X60411790Y-49600500D01*
X70199903Y-49600500D01*
X70266942Y-49620185D01*
X70287584Y-49636819D01*
X75032754Y-54381989D01*
X75066239Y-54443312D01*
X75061255Y-54513004D01*
X75032756Y-54557349D01*
X74916267Y-54673839D01*
X74910156Y-54679950D01*
X74872540Y-54726626D01*
X74812753Y-54857540D01*
X74812752Y-54857544D01*
X74792272Y-55000000D01*
X74812752Y-55142455D01*
X74812753Y-55142459D01*
X74872539Y-55273370D01*
X74872540Y-55273371D01*
X74872541Y-55273373D01*
X74910160Y-55320056D01*
X74910163Y-55320059D01*
X74910168Y-55320065D01*
X75863181Y-56273075D01*
X75896666Y-56334398D01*
X75899500Y-56360756D01*
X75899500Y-59750902D01*
X75893261Y-59772147D01*
X75891682Y-59794236D01*
X75883609Y-59805019D01*
X75879815Y-59817941D01*
X75863081Y-59832440D01*
X75849810Y-59850169D01*
X75837189Y-59854876D01*
X75827011Y-59863696D01*
X75805093Y-59866847D01*
X75784346Y-59874586D01*
X75771185Y-59871723D01*
X75757853Y-59873640D01*
X75737709Y-59864440D01*
X75716073Y-59859734D01*
X75698347Y-59846465D01*
X75694297Y-59844615D01*
X75687819Y-59838583D01*
X75636819Y-59787583D01*
X75603334Y-59726260D01*
X75600500Y-59699902D01*
X75600500Y-56920942D01*
X75593964Y-56896552D01*
X75593963Y-56896549D01*
X75587296Y-56871669D01*
X75561815Y-56776570D01*
X75559577Y-56768216D01*
X75480520Y-56631284D01*
X75368716Y-56519480D01*
X75368715Y-56519479D01*
X75364385Y-56515149D01*
X75364374Y-56515139D01*
X70334574Y-51485339D01*
X70301089Y-51424016D01*
X70300638Y-51421849D01*
X70269738Y-51266510D01*
X70269737Y-51266503D01*
X70269735Y-51266498D01*
X70209397Y-51120827D01*
X70209390Y-51120814D01*
X70121789Y-50989711D01*
X70121786Y-50989707D01*
X70010292Y-50878213D01*
X70010288Y-50878210D01*
X69879185Y-50790609D01*
X69879172Y-50790602D01*
X69733501Y-50730264D01*
X69733489Y-50730261D01*
X69578845Y-50699500D01*
X69578842Y-50699500D01*
X69421158Y-50699500D01*
X69421155Y-50699500D01*
X69266510Y-50730261D01*
X69266498Y-50730264D01*
X69120827Y-50790602D01*
X69120814Y-50790609D01*
X68989711Y-50878210D01*
X68989707Y-50878213D01*
X68878213Y-50989707D01*
X68878210Y-50989711D01*
X68790609Y-51120814D01*
X68790602Y-51120827D01*
X68730264Y-51266498D01*
X68730261Y-51266510D01*
X68699500Y-51421153D01*
X68699500Y-51578846D01*
X68730261Y-51733489D01*
X68730264Y-51733501D01*
X68790602Y-51879172D01*
X68790609Y-51879185D01*
X68878210Y-52010288D01*
X68878213Y-52010292D01*
X68989707Y-52121786D01*
X68989711Y-52121789D01*
X69120814Y-52209390D01*
X69120827Y-52209397D01*
X69266498Y-52269735D01*
X69266503Y-52269737D01*
X69331147Y-52282595D01*
X69421849Y-52300638D01*
X69483760Y-52333023D01*
X69485339Y-52334574D01*
X74363181Y-57212416D01*
X74396666Y-57273739D01*
X74399500Y-57300097D01*
X74399500Y-59913330D01*
X74399499Y-59913348D01*
X74399499Y-60079054D01*
X74399498Y-60079054D01*
X74440423Y-60231785D01*
X74469358Y-60281900D01*
X74469359Y-60281904D01*
X74469360Y-60281904D01*
X74519479Y-60368714D01*
X74519481Y-60368717D01*
X74638349Y-60487585D01*
X74638355Y-60487590D01*
X77363181Y-63212416D01*
X77396666Y-63273739D01*
X77399500Y-63300097D01*
X77399500Y-84199903D01*
X77379815Y-84266942D01*
X77363181Y-84287584D01*
X73787584Y-87863181D01*
X73726261Y-87896666D01*
X73699903Y-87899500D01*
X72086670Y-87899500D01*
X72086654Y-87899499D01*
X72079058Y-87899499D01*
X71920943Y-87899499D01*
X71844579Y-87919961D01*
X71768214Y-87940423D01*
X71768209Y-87940426D01*
X71631290Y-88019475D01*
X71631282Y-88019481D01*
X64287584Y-95363181D01*
X64226261Y-95396666D01*
X64199903Y-95399500D01*
X60079057Y-95399500D01*
X59920943Y-95399500D01*
X59768215Y-95440423D01*
X59768214Y-95440423D01*
X59768212Y-95440424D01*
X59768209Y-95440425D01*
X59718096Y-95469359D01*
X59718095Y-95469360D01*
X59674689Y-95494420D01*
X59631285Y-95519479D01*
X59631282Y-95519481D01*
X58479481Y-96671282D01*
X58479479Y-96671285D01*
X58429361Y-96758094D01*
X58429359Y-96758096D01*
X58400425Y-96808209D01*
X58400424Y-96808210D01*
X58400423Y-96808215D01*
X58359499Y-96960943D01*
X58359499Y-96960945D01*
X58359499Y-97129046D01*
X58359500Y-97129059D01*
X58359500Y-97214281D01*
X58339815Y-97281320D01*
X58291795Y-97324765D01*
X58252185Y-97344947D01*
X58252184Y-97344948D01*
X58080213Y-97469890D01*
X57929890Y-97620213D01*
X57804951Y-97792179D01*
X57708444Y-97981585D01*
X57642753Y-98183760D01*
X57609500Y-98393713D01*
X57609500Y-98606286D01*
X57642753Y-98816239D01*
X57708444Y-99018414D01*
X57804951Y-99207820D01*
X57929890Y-99379786D01*
X58080213Y-99530109D01*
X58252179Y-99655048D01*
X58252181Y-99655049D01*
X58252184Y-99655051D01*
X58441588Y-99751557D01*
X58643757Y-99817246D01*
X58853713Y-99850500D01*
X58853714Y-99850500D01*
X59066286Y-99850500D01*
X59066287Y-99850500D01*
X59276243Y-99817246D01*
X59478412Y-99751557D01*
X59667816Y-99655051D01*
X59754138Y-99592335D01*
X59839786Y-99530109D01*
X59839788Y-99530106D01*
X59839792Y-99530104D01*
X59990104Y-99379792D01*
X59990106Y-99379788D01*
X59990109Y-99379786D01*
X60115048Y-99207820D01*
X60115047Y-99207820D01*
X60115051Y-99207816D01*
X60119514Y-99199054D01*
X60167488Y-99148259D01*
X60235308Y-99131463D01*
X60301444Y-99153999D01*
X60340486Y-99199056D01*
X60344951Y-99207820D01*
X60469890Y-99379786D01*
X60620213Y-99530109D01*
X60792179Y-99655048D01*
X60792181Y-99655049D01*
X60792184Y-99655051D01*
X60981588Y-99751557D01*
X61183757Y-99817246D01*
X61393713Y-99850500D01*
X61393714Y-99850500D01*
X61606286Y-99850500D01*
X61606287Y-99850500D01*
X61816243Y-99817246D01*
X62018412Y-99751557D01*
X62207816Y-99655051D01*
X62379792Y-99530104D01*
X62493329Y-99416566D01*
X62554648Y-99383084D01*
X62624340Y-99388068D01*
X62680274Y-99429939D01*
X62697189Y-99460917D01*
X62746202Y-99592328D01*
X62746206Y-99592335D01*
X62832452Y-99707544D01*
X62832455Y-99707547D01*
X62947664Y-99793793D01*
X62947671Y-99793797D01*
X63082517Y-99844091D01*
X63082516Y-99844091D01*
X63089444Y-99844835D01*
X63142127Y-99850500D01*
X64937872Y-99850499D01*
X64997483Y-99844091D01*
X65132331Y-99793796D01*
X65247546Y-99707546D01*
X65333796Y-99592331D01*
X65384091Y-99457483D01*
X65390500Y-99397873D01*
X65390499Y-98050095D01*
X65410184Y-97983057D01*
X65426813Y-97962420D01*
X72752416Y-90636819D01*
X72813739Y-90603334D01*
X72840097Y-90600500D01*
X73515699Y-90600500D01*
X73582738Y-90620185D01*
X73603380Y-90636819D01*
X75440651Y-92474091D01*
X75474136Y-92535414D01*
X75469152Y-92605106D01*
X75440652Y-92649453D01*
X75318055Y-92772051D01*
X75318054Y-92772052D01*
X75280438Y-92818728D01*
X75220651Y-92949642D01*
X75220650Y-92949646D01*
X75200170Y-93092102D01*
X75220650Y-93234557D01*
X75220651Y-93234561D01*
X75280437Y-93365472D01*
X75280438Y-93365473D01*
X75280439Y-93365475D01*
X75318058Y-93412158D01*
X75318061Y-93412161D01*
X75318066Y-93412167D01*
X76391717Y-94485815D01*
X76587842Y-94681940D01*
X76587846Y-94681943D01*
X76587848Y-94681945D01*
X76634524Y-94719561D01*
X76765438Y-94779348D01*
X76765439Y-94779348D01*
X76765441Y-94779349D01*
X76907898Y-94799830D01*
X77050355Y-94779349D01*
X77181271Y-94719561D01*
X77227954Y-94681942D01*
X78497736Y-93412158D01*
X78535357Y-93365475D01*
X78595145Y-93234559D01*
X78615626Y-93092102D01*
X78595145Y-92949645D01*
X78595144Y-92949642D01*
X78536880Y-92822063D01*
X78526936Y-92752904D01*
X78555961Y-92689349D01*
X78614739Y-92651574D01*
X78649674Y-92646551D01*
X78810235Y-92646551D01*
X78810236Y-92646551D01*
X79020192Y-92613297D01*
X79222361Y-92547608D01*
X79411765Y-92451102D01*
X79471583Y-92407642D01*
X79583735Y-92326160D01*
X79583737Y-92326157D01*
X79583741Y-92326155D01*
X79734053Y-92175843D01*
X79734055Y-92175839D01*
X79734058Y-92175837D01*
X79858997Y-92003871D01*
X79858996Y-92003871D01*
X79859000Y-92003867D01*
X79955506Y-91814463D01*
X80021195Y-91612294D01*
X80054449Y-91402338D01*
X80054449Y-91189764D01*
X80021195Y-90979808D01*
X80018156Y-90970457D01*
X80016158Y-90900619D01*
X80052236Y-90840785D01*
X80114936Y-90809954D01*
X80174406Y-90814207D01*
X80183757Y-90817246D01*
X80393713Y-90850500D01*
X80393714Y-90850500D01*
X80606286Y-90850500D01*
X80606287Y-90850500D01*
X80816243Y-90817246D01*
X81018412Y-90751557D01*
X81207816Y-90655051D01*
X81299788Y-90588230D01*
X81379786Y-90530109D01*
X81379788Y-90530106D01*
X81379792Y-90530104D01*
X81530104Y-90379792D01*
X81530106Y-90379788D01*
X81530109Y-90379786D01*
X81655048Y-90207820D01*
X81655047Y-90207820D01*
X81655051Y-90207816D01*
X81751557Y-90018412D01*
X81817246Y-89816243D01*
X81850500Y-89606287D01*
X81850500Y-89393713D01*
X81817246Y-89183757D01*
X81803506Y-89141473D01*
X81801512Y-89071635D01*
X81833755Y-89015478D01*
X85368713Y-85480521D01*
X85368716Y-85480520D01*
X85480520Y-85368716D01*
X85530639Y-85281904D01*
X85559577Y-85231785D01*
X85600501Y-85079057D01*
X85600501Y-84920943D01*
X85600501Y-84913348D01*
X85600500Y-84913330D01*
X85600500Y-59089060D01*
X85600501Y-59089047D01*
X85600501Y-58920944D01*
X85577217Y-58834049D01*
X85559577Y-58768216D01*
X85549958Y-58751555D01*
X85480524Y-58631290D01*
X85480518Y-58631282D01*
X72987590Y-46138355D01*
X72987588Y-46138352D01*
X72868717Y-46019481D01*
X72868716Y-46019480D01*
X72771767Y-45963507D01*
X72731785Y-45940423D01*
X72579057Y-45899499D01*
X72420943Y-45899499D01*
X72413347Y-45899499D01*
X72413331Y-45899500D01*
X68164500Y-45899500D01*
X68097461Y-45879815D01*
X68051706Y-45827011D01*
X68040500Y-45775500D01*
X68040500Y-45681155D01*
X68040499Y-45681153D01*
X68009738Y-45526510D01*
X68009737Y-45526503D01*
X67997913Y-45497956D01*
X67949397Y-45380827D01*
X67949390Y-45380814D01*
X67861398Y-45249125D01*
X67840520Y-45182447D01*
X67840500Y-45180234D01*
X67840500Y-44510345D01*
X77369525Y-44510345D01*
X77369525Y-44829719D01*
X77376574Y-44901284D01*
X77400828Y-45147554D01*
X77463134Y-45460786D01*
X77555845Y-45766414D01*
X77678065Y-46061478D01*
X77678067Y-46061483D01*
X77828609Y-46343126D01*
X77828626Y-46343154D01*
X78006037Y-46608670D01*
X78006054Y-46608693D01*
X78208663Y-46855572D01*
X78434484Y-47081393D01*
X78434489Y-47081397D01*
X78434490Y-47081398D01*
X78681369Y-47284007D01*
X78681376Y-47284012D01*
X78681386Y-47284019D01*
X78946902Y-47461430D01*
X78946907Y-47461433D01*
X78946919Y-47461441D01*
X78946928Y-47461445D01*
X78946930Y-47461447D01*
X79228573Y-47611989D01*
X79228575Y-47611989D01*
X79228581Y-47611993D01*
X79523644Y-47734212D01*
X79829265Y-47826921D01*
X80142502Y-47889228D01*
X80460338Y-47920532D01*
X80460341Y-47920532D01*
X80779709Y-47920532D01*
X80779712Y-47920532D01*
X81097548Y-47889228D01*
X81410785Y-47826921D01*
X81716406Y-47734212D01*
X82011469Y-47611993D01*
X82293131Y-47461441D01*
X82558681Y-47284007D01*
X82805560Y-47081398D01*
X83031391Y-46855567D01*
X83234000Y-46608688D01*
X83411434Y-46343138D01*
X83561986Y-46061476D01*
X83684205Y-45766413D01*
X83776914Y-45460792D01*
X83839221Y-45147555D01*
X83870525Y-44829719D01*
X83870525Y-44510345D01*
X83839221Y-44192509D01*
X83776914Y-43879272D01*
X83684205Y-43573651D01*
X83561986Y-43278588D01*
X83506741Y-43175233D01*
X83411440Y-42996937D01*
X83411438Y-42996935D01*
X83411434Y-42996926D01*
X83387374Y-42960917D01*
X83234012Y-42731393D01*
X83234005Y-42731383D01*
X83234000Y-42731376D01*
X83031391Y-42484497D01*
X83031390Y-42484496D01*
X83031386Y-42484491D01*
X82805565Y-42258670D01*
X82558686Y-42056061D01*
X82558663Y-42056044D01*
X82293147Y-41878633D01*
X82293119Y-41878616D01*
X82011476Y-41728074D01*
X82011471Y-41728072D01*
X81716407Y-41605852D01*
X81410779Y-41513141D01*
X81097546Y-41450835D01*
X81097547Y-41450835D01*
X80858166Y-41427259D01*
X80779712Y-41419532D01*
X80460338Y-41419532D01*
X80387847Y-41426671D01*
X80142502Y-41450835D01*
X79829270Y-41513141D01*
X79523642Y-41605852D01*
X79228578Y-41728072D01*
X79228573Y-41728074D01*
X78946930Y-41878616D01*
X78946902Y-41878633D01*
X78681386Y-42056044D01*
X78681363Y-42056061D01*
X78434484Y-42258670D01*
X78208663Y-42484491D01*
X78006054Y-42731370D01*
X78006037Y-42731393D01*
X77828626Y-42996909D01*
X77828609Y-42996937D01*
X77678067Y-43278580D01*
X77678065Y-43278585D01*
X77555845Y-43573649D01*
X77463134Y-43879277D01*
X77400828Y-44192509D01*
X77380444Y-44399478D01*
X77369525Y-44510345D01*
X67840500Y-44510345D01*
X67840500Y-43285718D01*
X67860185Y-43218679D01*
X67908207Y-43175233D01*
X67947815Y-43155052D01*
X67947815Y-43155051D01*
X67947816Y-43155051D01*
X68039193Y-43088661D01*
X68119786Y-43030109D01*
X68119788Y-43030106D01*
X68119792Y-43030104D01*
X68270104Y-42879792D01*
X68270106Y-42879788D01*
X68270109Y-42879786D01*
X68395048Y-42707820D01*
X68395047Y-42707820D01*
X68395051Y-42707816D01*
X68399514Y-42699054D01*
X68447488Y-42648259D01*
X68515308Y-42631463D01*
X68581444Y-42653999D01*
X68620486Y-42699056D01*
X68624951Y-42707820D01*
X68749890Y-42879786D01*
X68900213Y-43030109D01*
X69072179Y-43155048D01*
X69072181Y-43155049D01*
X69072184Y-43155051D01*
X69261588Y-43251557D01*
X69463757Y-43317246D01*
X69673713Y-43350500D01*
X69673714Y-43350500D01*
X69886286Y-43350500D01*
X69886287Y-43350500D01*
X70096243Y-43317246D01*
X70298412Y-43251557D01*
X70487816Y-43155051D01*
X70574138Y-43092335D01*
X70659786Y-43030109D01*
X70659788Y-43030106D01*
X70659792Y-43030104D01*
X70810104Y-42879792D01*
X70810106Y-42879788D01*
X70810109Y-42879786D01*
X70935048Y-42707820D01*
X70935047Y-42707820D01*
X70935051Y-42707816D01*
X70939514Y-42699054D01*
X70987488Y-42648259D01*
X71055308Y-42631463D01*
X71121444Y-42653999D01*
X71160486Y-42699056D01*
X71164951Y-42707820D01*
X71289890Y-42879786D01*
X71440213Y-43030109D01*
X71612179Y-43155048D01*
X71612181Y-43155049D01*
X71612184Y-43155051D01*
X71801588Y-43251557D01*
X72003757Y-43317246D01*
X72213713Y-43350500D01*
X72213714Y-43350500D01*
X72426286Y-43350500D01*
X72426287Y-43350500D01*
X72636243Y-43317246D01*
X72838412Y-43251557D01*
X73027816Y-43155051D01*
X73114138Y-43092335D01*
X73199786Y-43030109D01*
X73199788Y-43030106D01*
X73199792Y-43030104D01*
X73350104Y-42879792D01*
X73350106Y-42879788D01*
X73350109Y-42879786D01*
X73475048Y-42707820D01*
X73475047Y-42707820D01*
X73475051Y-42707816D01*
X73571557Y-42518412D01*
X73637246Y-42316243D01*
X73670500Y-42106287D01*
X73670500Y-41893713D01*
X73637246Y-41683757D01*
X73571557Y-41481588D01*
X73475051Y-41292184D01*
X73475049Y-41292181D01*
X73475048Y-41292179D01*
X73350109Y-41120213D01*
X73199786Y-40969890D01*
X73027820Y-40844951D01*
X72838414Y-40748444D01*
X72838413Y-40748443D01*
X72838412Y-40748443D01*
X72636243Y-40682754D01*
X72636241Y-40682753D01*
X72636240Y-40682753D01*
X72474957Y-40657208D01*
X72426287Y-40649500D01*
X72213713Y-40649500D01*
X72165042Y-40657208D01*
X72003760Y-40682753D01*
X71801585Y-40748444D01*
X71612179Y-40844951D01*
X71440213Y-40969890D01*
X71289890Y-41120213D01*
X71164949Y-41292182D01*
X71160484Y-41300946D01*
X71112509Y-41351742D01*
X71044688Y-41368536D01*
X70978553Y-41345998D01*
X70939516Y-41300946D01*
X70935050Y-41292182D01*
X70810109Y-41120213D01*
X70659786Y-40969890D01*
X70487820Y-40844951D01*
X70298414Y-40748444D01*
X70298413Y-40748443D01*
X70298412Y-40748443D01*
X70096243Y-40682754D01*
X70096241Y-40682753D01*
X70096240Y-40682753D01*
X69934957Y-40657208D01*
X69886287Y-40649500D01*
X69673713Y-40649500D01*
X69625042Y-40657208D01*
X69463760Y-40682753D01*
X69261585Y-40748444D01*
X69072179Y-40844951D01*
X68900213Y-40969890D01*
X68749890Y-41120213D01*
X68624949Y-41292182D01*
X68620484Y-41300946D01*
X68572509Y-41351742D01*
X68504688Y-41368536D01*
X68438553Y-41345998D01*
X68399516Y-41300946D01*
X68395050Y-41292182D01*
X68270109Y-41120213D01*
X68119786Y-40969890D01*
X67947820Y-40844951D01*
X67758414Y-40748444D01*
X67758413Y-40748443D01*
X67758412Y-40748443D01*
X67556243Y-40682754D01*
X67556241Y-40682753D01*
X67556240Y-40682753D01*
X67394957Y-40657208D01*
X67346287Y-40649500D01*
X67133713Y-40649500D01*
X67085042Y-40657208D01*
X66923760Y-40682753D01*
X66721585Y-40748444D01*
X66532179Y-40844951D01*
X66360213Y-40969890D01*
X66209890Y-41120213D01*
X66084949Y-41292182D01*
X66080484Y-41300946D01*
X66032509Y-41351742D01*
X65964688Y-41368536D01*
X65898553Y-41345998D01*
X65859516Y-41300946D01*
X65855050Y-41292182D01*
X65730109Y-41120213D01*
X65579786Y-40969890D01*
X65407820Y-40844951D01*
X65218414Y-40748444D01*
X65218413Y-40748443D01*
X65218412Y-40748443D01*
X65016243Y-40682754D01*
X65016241Y-40682753D01*
X65016240Y-40682753D01*
X64854957Y-40657208D01*
X64806287Y-40649500D01*
X64593713Y-40649500D01*
X64545042Y-40657208D01*
X64383760Y-40682753D01*
X64181585Y-40748444D01*
X63992179Y-40844951D01*
X63820213Y-40969890D01*
X63669890Y-41120213D01*
X63544949Y-41292182D01*
X63540484Y-41300946D01*
X63492509Y-41351742D01*
X63424688Y-41368536D01*
X63358553Y-41345998D01*
X63319516Y-41300946D01*
X63315050Y-41292182D01*
X63190109Y-41120213D01*
X63039786Y-40969890D01*
X62867820Y-40844951D01*
X62678414Y-40748444D01*
X62678413Y-40748443D01*
X62678412Y-40748443D01*
X62476243Y-40682754D01*
X62476241Y-40682753D01*
X62476240Y-40682753D01*
X62314957Y-40657208D01*
X62266287Y-40649500D01*
X62053713Y-40649500D01*
X62005042Y-40657208D01*
X61843760Y-40682753D01*
X61641585Y-40748444D01*
X61452179Y-40844951D01*
X61280213Y-40969890D01*
X61129890Y-41120213D01*
X61004949Y-41292182D01*
X61000484Y-41300946D01*
X60952509Y-41351742D01*
X60884688Y-41368536D01*
X60818553Y-41345998D01*
X60779516Y-41300946D01*
X60775050Y-41292182D01*
X60650109Y-41120213D01*
X60499786Y-40969890D01*
X60327820Y-40844951D01*
X60138414Y-40748444D01*
X60138413Y-40748443D01*
X60138412Y-40748443D01*
X59936243Y-40682754D01*
X59936241Y-40682753D01*
X59936240Y-40682753D01*
X59774957Y-40657208D01*
X59726287Y-40649500D01*
X59513713Y-40649500D01*
X59465042Y-40657208D01*
X59303760Y-40682753D01*
X59101585Y-40748444D01*
X58912179Y-40844951D01*
X58740213Y-40969890D01*
X58589890Y-41120213D01*
X58464949Y-41292182D01*
X58460484Y-41300946D01*
X58412509Y-41351742D01*
X58344688Y-41368536D01*
X58278553Y-41345998D01*
X58239516Y-41300946D01*
X58235050Y-41292182D01*
X58110109Y-41120213D01*
X57959786Y-40969890D01*
X57787820Y-40844951D01*
X57598414Y-40748444D01*
X57598413Y-40748443D01*
X57598412Y-40748443D01*
X57396243Y-40682754D01*
X57396241Y-40682753D01*
X57396240Y-40682753D01*
X57234957Y-40657208D01*
X57186287Y-40649500D01*
X56973713Y-40649500D01*
X56925042Y-40657208D01*
X56763760Y-40682753D01*
X56561585Y-40748444D01*
X56372179Y-40844951D01*
X56200213Y-40969890D01*
X56049890Y-41120213D01*
X55924949Y-41292182D01*
X55920484Y-41300946D01*
X55872509Y-41351742D01*
X55804688Y-41368536D01*
X55738553Y-41345998D01*
X55699516Y-41300946D01*
X55695050Y-41292182D01*
X55570109Y-41120213D01*
X55419786Y-40969890D01*
X55247820Y-40844951D01*
X55058414Y-40748444D01*
X55058413Y-40748443D01*
X55058412Y-40748443D01*
X54856243Y-40682754D01*
X54856241Y-40682753D01*
X54856240Y-40682753D01*
X54694957Y-40657208D01*
X54646287Y-40649500D01*
X54433713Y-40649500D01*
X54385042Y-40657208D01*
X54223760Y-40682753D01*
X54021585Y-40748444D01*
X53832179Y-40844951D01*
X53660213Y-40969890D01*
X53509890Y-41120213D01*
X53384949Y-41292182D01*
X53380484Y-41300946D01*
X53332509Y-41351742D01*
X53264688Y-41368536D01*
X53198553Y-41345998D01*
X53159516Y-41300946D01*
X53155050Y-41292182D01*
X53030109Y-41120213D01*
X52879786Y-40969890D01*
X52707820Y-40844951D01*
X52518414Y-40748444D01*
X52518413Y-40748443D01*
X52518412Y-40748443D01*
X52316243Y-40682754D01*
X52316241Y-40682753D01*
X52316240Y-40682753D01*
X52154957Y-40657208D01*
X52106287Y-40649500D01*
X51893713Y-40649500D01*
X51845042Y-40657208D01*
X51683760Y-40682753D01*
X51481585Y-40748444D01*
X51292179Y-40844951D01*
X51120215Y-40969889D01*
X51006673Y-41083431D01*
X50945350Y-41116915D01*
X50875658Y-41111931D01*
X50819725Y-41070059D01*
X50802810Y-41039082D01*
X50753797Y-40907671D01*
X50753793Y-40907664D01*
X50667547Y-40792455D01*
X50667544Y-40792452D01*
X50552335Y-40706206D01*
X50552328Y-40706202D01*
X50417482Y-40655908D01*
X50417483Y-40655908D01*
X50357883Y-40649501D01*
X50357881Y-40649500D01*
X50357873Y-40649500D01*
X50357864Y-40649500D01*
X48562129Y-40649500D01*
X48562123Y-40649501D01*
X48502516Y-40655908D01*
X48367671Y-40706202D01*
X48367664Y-40706206D01*
X48252455Y-40792452D01*
X48252452Y-40792455D01*
X48166206Y-40907664D01*
X48166202Y-40907671D01*
X48115908Y-41042517D01*
X48109501Y-41102116D01*
X48109500Y-41102135D01*
X48109500Y-42897870D01*
X48109501Y-42897876D01*
X48115908Y-42957483D01*
X48166202Y-43092328D01*
X48166206Y-43092335D01*
X48252452Y-43207544D01*
X48252455Y-43207547D01*
X48367664Y-43293793D01*
X48367671Y-43293797D01*
X48393708Y-43303508D01*
X48502517Y-43344091D01*
X48562127Y-43350500D01*
X48735500Y-43350499D01*
X48802539Y-43370183D01*
X48848294Y-43422987D01*
X48859500Y-43474499D01*
X48859500Y-44913330D01*
X48859499Y-44913348D01*
X48859499Y-45079054D01*
X48859498Y-45079054D01*
X48871656Y-45124427D01*
X48900423Y-45231785D01*
X48900424Y-45231787D01*
X48900423Y-45231787D01*
X48910773Y-45249712D01*
X48910774Y-45249714D01*
X48979475Y-45368709D01*
X48979481Y-45368717D01*
X49108720Y-45497956D01*
X49108726Y-45497961D01*
X49368349Y-45757585D01*
X49368354Y-45757589D01*
X49793083Y-46182319D01*
X49826568Y-46243641D01*
X49821584Y-46313333D01*
X49793083Y-46357680D01*
X40335235Y-55815529D01*
X40223430Y-55927333D01*
X40223428Y-55927336D01*
X40181189Y-56000498D01*
X40181188Y-56000499D01*
X40144372Y-56064265D01*
X40144372Y-56064266D01*
X40103448Y-56216994D01*
X40103448Y-56216996D01*
X40103448Y-56385097D01*
X40103449Y-56385110D01*
X40103449Y-57935293D01*
X40083764Y-58002332D01*
X40067130Y-58022974D01*
X39430874Y-58659232D01*
X39369551Y-58692717D01*
X39343193Y-58695551D01*
X38624891Y-58695551D01*
X38472163Y-58736474D01*
X38446040Y-58751557D01*
X38446039Y-58751557D01*
X38335236Y-58815528D01*
X38335231Y-58815532D01*
X38223427Y-58927337D01*
X33131284Y-64019481D01*
X33019483Y-64131281D01*
X33019481Y-64131284D01*
X32940423Y-64268214D01*
X32940423Y-64268215D01*
X32899499Y-64420943D01*
X32899499Y-64420945D01*
X32899499Y-64579054D01*
X32899498Y-64579054D01*
X27500451Y-64579054D01*
X28357248Y-59042048D01*
X28361381Y-59024200D01*
X32351899Y-46193248D01*
X32359171Y-46175077D01*
X33183494Y-44510345D01*
X37369525Y-44510345D01*
X37369525Y-44829719D01*
X37376574Y-44901284D01*
X37400828Y-45147554D01*
X37463134Y-45460786D01*
X37555845Y-45766414D01*
X37678065Y-46061478D01*
X37678067Y-46061483D01*
X37828609Y-46343126D01*
X37828626Y-46343154D01*
X38006037Y-46608670D01*
X38006054Y-46608693D01*
X38208663Y-46855572D01*
X38434484Y-47081393D01*
X38434489Y-47081397D01*
X38434490Y-47081398D01*
X38681369Y-47284007D01*
X38681376Y-47284012D01*
X38681386Y-47284019D01*
X38946902Y-47461430D01*
X38946907Y-47461433D01*
X38946919Y-47461441D01*
X38946928Y-47461445D01*
X38946930Y-47461447D01*
X39228573Y-47611989D01*
X39228575Y-47611989D01*
X39228581Y-47611993D01*
X39523644Y-47734212D01*
X39829265Y-47826921D01*
X40142502Y-47889228D01*
X40460338Y-47920532D01*
X40460341Y-47920532D01*
X40779709Y-47920532D01*
X40779712Y-47920532D01*
X41097548Y-47889228D01*
X41410785Y-47826921D01*
X41716406Y-47734212D01*
X42011469Y-47611993D01*
X42293131Y-47461441D01*
X42558681Y-47284007D01*
X42805560Y-47081398D01*
X43031391Y-46855567D01*
X43234000Y-46608688D01*
X43411434Y-46343138D01*
X43561986Y-46061476D01*
X43684205Y-45766413D01*
X43776914Y-45460792D01*
X43839221Y-45147555D01*
X43870525Y-44829719D01*
X43870525Y-44510345D01*
X43839221Y-44192509D01*
X43776914Y-43879272D01*
X43684205Y-43573651D01*
X43561986Y-43278588D01*
X43506741Y-43175233D01*
X43411440Y-42996937D01*
X43411438Y-42996935D01*
X43411434Y-42996926D01*
X43387374Y-42960917D01*
X43234012Y-42731393D01*
X43234005Y-42731383D01*
X43234000Y-42731376D01*
X43031391Y-42484497D01*
X43031390Y-42484496D01*
X43031386Y-42484491D01*
X42805565Y-42258670D01*
X42558686Y-42056061D01*
X42558663Y-42056044D01*
X42293147Y-41878633D01*
X42293119Y-41878616D01*
X42011476Y-41728074D01*
X42011471Y-41728072D01*
X41716407Y-41605852D01*
X41410779Y-41513141D01*
X41097546Y-41450835D01*
X41097547Y-41450835D01*
X40858166Y-41427259D01*
X40779712Y-41419532D01*
X40460338Y-41419532D01*
X40387847Y-41426671D01*
X40142502Y-41450835D01*
X39829270Y-41513141D01*
X39523642Y-41605852D01*
X39228578Y-41728072D01*
X39228573Y-41728074D01*
X38946930Y-41878616D01*
X38946902Y-41878633D01*
X38681386Y-42056044D01*
X38681363Y-42056061D01*
X38434484Y-42258670D01*
X38208663Y-42484491D01*
X38006054Y-42731370D01*
X38006037Y-42731393D01*
X37828626Y-42996909D01*
X37828609Y-42996937D01*
X37678067Y-43278580D01*
X37678065Y-43278585D01*
X37555845Y-43573649D01*
X37463134Y-43879277D01*
X37400828Y-44192509D01*
X37380444Y-44399478D01*
X37369525Y-44510345D01*
X33183494Y-44510345D01*
X35027593Y-40786159D01*
X35051282Y-40753258D01*
X38657856Y-37167520D01*
X38695359Y-37141952D01*
X42951323Y-35270380D01*
X42986124Y-35260815D01*
X49789085Y-34425796D01*
X49801893Y-34424894D01*
X63514681Y-34170852D01*
X63523352Y-34170996D01*
G37*
%TD.AperFunction*%
%TA.AperFunction,NonConductor*%
G36*
X50978418Y-42895417D02*
G01*
X51006673Y-42916569D01*
X51120213Y-43030109D01*
X51292179Y-43155048D01*
X51292181Y-43155049D01*
X51292184Y-43155051D01*
X51481588Y-43251557D01*
X51683757Y-43317246D01*
X51893713Y-43350500D01*
X51893714Y-43350500D01*
X52040902Y-43350500D01*
X52107941Y-43370185D01*
X52153696Y-43422989D01*
X52163640Y-43492147D01*
X52134615Y-43555703D01*
X52128583Y-43562181D01*
X51025339Y-44665425D01*
X50964016Y-44698910D01*
X50961850Y-44699361D01*
X50806508Y-44730261D01*
X50806498Y-44730264D01*
X50660827Y-44790602D01*
X50660814Y-44790609D01*
X50529711Y-44878210D01*
X50446259Y-44961662D01*
X50438312Y-44966000D01*
X50432888Y-44973247D01*
X50408128Y-44982481D01*
X50384935Y-44995146D01*
X50375906Y-44994500D01*
X50367424Y-44997664D01*
X50341603Y-44992047D01*
X50315244Y-44990162D01*
X50306190Y-44984343D01*
X50299151Y-44982812D01*
X50270897Y-44961661D01*
X50096819Y-44787583D01*
X50063334Y-44726260D01*
X50060500Y-44699902D01*
X50060500Y-43474499D01*
X50080185Y-43407460D01*
X50132989Y-43361705D01*
X50184500Y-43350499D01*
X50357871Y-43350499D01*
X50357872Y-43350499D01*
X50417483Y-43344091D01*
X50552331Y-43293796D01*
X50667546Y-43207546D01*
X50753796Y-43092331D01*
X50802810Y-42960916D01*
X50844681Y-42904984D01*
X50910145Y-42880566D01*
X50978418Y-42895417D01*
G37*
%TD.AperFunction*%
%TA.AperFunction,NonConductor*%
G36*
X66041444Y-42653999D02*
G01*
X66080486Y-42699056D01*
X66084951Y-42707820D01*
X66209890Y-42879786D01*
X66360213Y-43030109D01*
X66532184Y-43155051D01*
X66532184Y-43155052D01*
X66571793Y-43175233D01*
X66622590Y-43223206D01*
X66639500Y-43285718D01*
X66639500Y-45180234D01*
X66619815Y-45247273D01*
X66618602Y-45249125D01*
X66530609Y-45380814D01*
X66530602Y-45380827D01*
X66470264Y-45526498D01*
X66470261Y-45526510D01*
X66439500Y-45681153D01*
X66439500Y-45775500D01*
X66436949Y-45784185D01*
X66438238Y-45793147D01*
X66427259Y-45817187D01*
X66419815Y-45842539D01*
X66412974Y-45848466D01*
X66409213Y-45856703D01*
X66386978Y-45870992D01*
X66367011Y-45888294D01*
X66356496Y-45890581D01*
X66350435Y-45894477D01*
X66315500Y-45899500D01*
X66300098Y-45899500D01*
X66233059Y-45879815D01*
X66212417Y-45863181D01*
X65336819Y-44987583D01*
X65303334Y-44926260D01*
X65300500Y-44899902D01*
X65300500Y-43285718D01*
X65320185Y-43218679D01*
X65368207Y-43175233D01*
X65407815Y-43155052D01*
X65407815Y-43155051D01*
X65407816Y-43155051D01*
X65499193Y-43088661D01*
X65579786Y-43030109D01*
X65579788Y-43030106D01*
X65579792Y-43030104D01*
X65730104Y-42879792D01*
X65730106Y-42879788D01*
X65730109Y-42879786D01*
X65855048Y-42707820D01*
X65855047Y-42707820D01*
X65855051Y-42707816D01*
X65859514Y-42699054D01*
X65907488Y-42648259D01*
X65975308Y-42631463D01*
X66041444Y-42653999D01*
G37*
%TD.AperFunction*%
%TA.AperFunction,NonConductor*%
G36*
X62644522Y-43333757D02*
G01*
X63363181Y-44052416D01*
X63396666Y-44113739D01*
X63399500Y-44140097D01*
X63399500Y-47079057D01*
X63424787Y-47173431D01*
X63442527Y-47239635D01*
X63440190Y-47240260D01*
X63446342Y-47297528D01*
X63415061Y-47360004D01*
X63354969Y-47395651D01*
X63324314Y-47399500D01*
X63224500Y-47399500D01*
X63157461Y-47379815D01*
X63111706Y-47327011D01*
X63100500Y-47275500D01*
X63100500Y-44800943D01*
X63100499Y-44800940D01*
X63091731Y-44768216D01*
X63087189Y-44751264D01*
X63059577Y-44648215D01*
X62985252Y-44519481D01*
X62980520Y-44511284D01*
X62868716Y-44399480D01*
X62868713Y-44399478D01*
X62031416Y-43562181D01*
X61997931Y-43500858D01*
X62002915Y-43431166D01*
X62044787Y-43375233D01*
X62110251Y-43350816D01*
X62119097Y-43350500D01*
X62266286Y-43350500D01*
X62266287Y-43350500D01*
X62476243Y-43317246D01*
X62518523Y-43303507D01*
X62588362Y-43301511D01*
X62644522Y-43333757D01*
G37*
%TD.AperFunction*%
%TA.AperFunction,NonConductor*%
G36*
X60104522Y-43333757D02*
G01*
X61863181Y-45092416D01*
X61896666Y-45153739D01*
X61899500Y-45180097D01*
X61899500Y-47920943D01*
X61899500Y-48079057D01*
X61933187Y-48204780D01*
X61942527Y-48239635D01*
X61940190Y-48240260D01*
X61946342Y-48297528D01*
X61915061Y-48360004D01*
X61854969Y-48395651D01*
X61824314Y-48399500D01*
X59799776Y-48399500D01*
X59732737Y-48379815D01*
X59686982Y-48327011D01*
X59677038Y-48257853D01*
X59706063Y-48194297D01*
X59752324Y-48160939D01*
X59879172Y-48108397D01*
X59879172Y-48108396D01*
X59879179Y-48108394D01*
X60010289Y-48020789D01*
X60121789Y-47909289D01*
X60209394Y-47778179D01*
X60269737Y-47632497D01*
X60300500Y-47477842D01*
X60300500Y-47320158D01*
X60300500Y-47320155D01*
X60300499Y-47320153D01*
X60282921Y-47231784D01*
X60269737Y-47165503D01*
X60269735Y-47165498D01*
X60209397Y-47019827D01*
X60209390Y-47019814D01*
X60121398Y-46888125D01*
X60100520Y-46821447D01*
X60100500Y-46819234D01*
X60100500Y-44509059D01*
X60100501Y-44509046D01*
X60100501Y-44340945D01*
X60100501Y-44340943D01*
X60059577Y-44188215D01*
X60030639Y-44138095D01*
X59980520Y-44051284D01*
X59868716Y-43939480D01*
X59868715Y-43939479D01*
X59864385Y-43935149D01*
X59864374Y-43935139D01*
X59491416Y-43562181D01*
X59457931Y-43500858D01*
X59462915Y-43431166D01*
X59504787Y-43375233D01*
X59570251Y-43350816D01*
X59579097Y-43350500D01*
X59726286Y-43350500D01*
X59726287Y-43350500D01*
X59936243Y-43317246D01*
X59978523Y-43303507D01*
X60048362Y-43301511D01*
X60104522Y-43333757D01*
G37*
%TD.AperFunction*%
%TA.AperFunction,NonConductor*%
G36*
X55881444Y-42653999D02*
G01*
X55920486Y-42699056D01*
X55924951Y-42707820D01*
X56049890Y-42879786D01*
X56200213Y-43030109D01*
X56372179Y-43155048D01*
X56372181Y-43155049D01*
X56372184Y-43155051D01*
X56561588Y-43251557D01*
X56763757Y-43317246D01*
X56973713Y-43350500D01*
X56973714Y-43350500D01*
X57186286Y-43350500D01*
X57186287Y-43350500D01*
X57396243Y-43317246D01*
X57438523Y-43303507D01*
X57508362Y-43301511D01*
X57564522Y-43333757D01*
X58863181Y-44632416D01*
X58896666Y-44693739D01*
X58899500Y-44720097D01*
X58899500Y-46819234D01*
X58879815Y-46886273D01*
X58878602Y-46888125D01*
X58790609Y-47019814D01*
X58790602Y-47019827D01*
X58730264Y-47165498D01*
X58730261Y-47165510D01*
X58699500Y-47320153D01*
X58699500Y-47477846D01*
X58730261Y-47632489D01*
X58730264Y-47632501D01*
X58790602Y-47778172D01*
X58790609Y-47778185D01*
X58878210Y-47909288D01*
X58878213Y-47909292D01*
X58989707Y-48020786D01*
X58989711Y-48020789D01*
X59120814Y-48108390D01*
X59120827Y-48108397D01*
X59247676Y-48160939D01*
X59302080Y-48204780D01*
X59324145Y-48271074D01*
X59306866Y-48338773D01*
X59255729Y-48386384D01*
X59200224Y-48399500D01*
X53760097Y-48399500D01*
X53693058Y-48379815D01*
X53672416Y-48363181D01*
X51578337Y-46269102D01*
X51544852Y-46207779D01*
X51549836Y-46138087D01*
X51578336Y-46093741D01*
X51661789Y-46010289D01*
X51749394Y-45879179D01*
X51809737Y-45733497D01*
X51840500Y-45578842D01*
X51840638Y-45578150D01*
X51873023Y-45516239D01*
X51874519Y-45514715D01*
X54055478Y-43333755D01*
X54116799Y-43300272D01*
X54181473Y-43303506D01*
X54223757Y-43317246D01*
X54433713Y-43350500D01*
X54433714Y-43350500D01*
X54646286Y-43350500D01*
X54646287Y-43350500D01*
X54856243Y-43317246D01*
X55058412Y-43251557D01*
X55247816Y-43155051D01*
X55334138Y-43092335D01*
X55419786Y-43030109D01*
X55419788Y-43030106D01*
X55419792Y-43030104D01*
X55570104Y-42879792D01*
X55570106Y-42879788D01*
X55570109Y-42879786D01*
X55695048Y-42707820D01*
X55695047Y-42707820D01*
X55695051Y-42707816D01*
X55699514Y-42699054D01*
X55747488Y-42648259D01*
X55815308Y-42631463D01*
X55881444Y-42653999D01*
G37*
%TD.AperFunction*%
%TA.AperFunction,NonConductor*%
G36*
X58648423Y-49606435D02*
G01*
X58669463Y-49607563D01*
X58681277Y-49616082D01*
X58695249Y-49620185D01*
X58709044Y-49636105D01*
X58726135Y-49648430D01*
X58731467Y-49661983D01*
X58741004Y-49672989D01*
X58744002Y-49693843D01*
X58751716Y-49713448D01*
X58750386Y-49738244D01*
X58750948Y-49742147D01*
X58749827Y-49748691D01*
X58719500Y-49901153D01*
X58719500Y-50058846D01*
X58750261Y-50213489D01*
X58750264Y-50213501D01*
X58810602Y-50359172D01*
X58810609Y-50359185D01*
X58898210Y-50490288D01*
X58898213Y-50490292D01*
X59009707Y-50601786D01*
X59009711Y-50601789D01*
X59140814Y-50689390D01*
X59140827Y-50689397D01*
X59286498Y-50749735D01*
X59286503Y-50749737D01*
X59351147Y-50762595D01*
X59441849Y-50780638D01*
X59503760Y-50813023D01*
X59505339Y-50814574D01*
X60128584Y-51437819D01*
X60162069Y-51499142D01*
X60157085Y-51568834D01*
X60115213Y-51624767D01*
X60049749Y-51649184D01*
X60040903Y-51649500D01*
X59893713Y-51649500D01*
X59845042Y-51657208D01*
X59683760Y-51682753D01*
X59598915Y-51710321D01*
X59527612Y-51733489D01*
X59481585Y-51748444D01*
X59292179Y-51844951D01*
X59120215Y-51969889D01*
X59006673Y-52083431D01*
X58945350Y-52116915D01*
X58875658Y-52111931D01*
X58819725Y-52070059D01*
X58802810Y-52039082D01*
X58753797Y-51907671D01*
X58753793Y-51907664D01*
X58667547Y-51792455D01*
X58667544Y-51792452D01*
X58552335Y-51706206D01*
X58552328Y-51706202D01*
X58417482Y-51655908D01*
X58417483Y-51655908D01*
X58357883Y-51649501D01*
X58357881Y-51649500D01*
X58357873Y-51649500D01*
X58357865Y-51649500D01*
X57010097Y-51649500D01*
X56943058Y-51629815D01*
X56922416Y-51613181D01*
X55121416Y-49812181D01*
X55087931Y-49750858D01*
X55092915Y-49681166D01*
X55134787Y-49625233D01*
X55200251Y-49600816D01*
X55209097Y-49600500D01*
X58628210Y-49600500D01*
X58648423Y-49606435D01*
G37*
%TD.AperFunction*%
%TA.AperFunction,NonConductor*%
G36*
X43017498Y-54934250D02*
G01*
X43073431Y-54976122D01*
X43097848Y-55041586D01*
X43084649Y-55106726D01*
X43044496Y-55185531D01*
X42978804Y-55387709D01*
X42945551Y-55597662D01*
X42945551Y-55810235D01*
X42978804Y-56020188D01*
X42981845Y-56029548D01*
X42983837Y-56099389D01*
X42947754Y-56159221D01*
X42885051Y-56190046D01*
X42825599Y-56185794D01*
X42816243Y-56182754D01*
X42816241Y-56182753D01*
X42816239Y-56182753D01*
X42667663Y-56159221D01*
X42606287Y-56149500D01*
X42393713Y-56149500D01*
X42345042Y-56157208D01*
X42183760Y-56182753D01*
X42183757Y-56182754D01*
X42078372Y-56216996D01*
X41981582Y-56248445D01*
X41902777Y-56288598D01*
X41834108Y-56301494D01*
X41769368Y-56275217D01*
X41729111Y-56218111D01*
X41726119Y-56148305D01*
X41758800Y-56090434D01*
X42886485Y-54962749D01*
X42947806Y-54929266D01*
X43017498Y-54934250D01*
G37*
%TD.AperFunction*%
%TA.AperFunction,NonConductor*%
G36*
X77228814Y-57688936D02*
G01*
X77242147Y-57687020D01*
X77262290Y-57696219D01*
X77283927Y-57700926D01*
X77301652Y-57714194D01*
X77305703Y-57716045D01*
X77312181Y-57722077D01*
X77416264Y-57826160D01*
X77588230Y-57951099D01*
X77588232Y-57951100D01*
X77588235Y-57951102D01*
X77777639Y-58047608D01*
X77979808Y-58113297D01*
X78189764Y-58146551D01*
X78189765Y-58146551D01*
X78402337Y-58146551D01*
X78402338Y-58146551D01*
X78612294Y-58113297D01*
X78621641Y-58110259D01*
X78691476Y-58108259D01*
X78751312Y-58144334D01*
X78782145Y-58207033D01*
X78777897Y-58266496D01*
X78774857Y-58275853D01*
X78774855Y-58275861D01*
X78741602Y-58485815D01*
X78741602Y-58698388D01*
X78772472Y-58893298D01*
X78774856Y-58908345D01*
X78830325Y-59079061D01*
X78840546Y-59110516D01*
X78937053Y-59299922D01*
X79061992Y-59471888D01*
X79212315Y-59622211D01*
X79384281Y-59747150D01*
X79384283Y-59747151D01*
X79384286Y-59747153D01*
X79573690Y-59843659D01*
X79775859Y-59909348D01*
X79985815Y-59942602D01*
X79985816Y-59942602D01*
X80198388Y-59942602D01*
X80198389Y-59942602D01*
X80408345Y-59909348D01*
X80610514Y-59843659D01*
X80799918Y-59747153D01*
X80864954Y-59699902D01*
X80971888Y-59622211D01*
X80971890Y-59622208D01*
X80971894Y-59622206D01*
X81122206Y-59471894D01*
X81122208Y-59471890D01*
X81122211Y-59471888D01*
X81247150Y-59299922D01*
X81247149Y-59299922D01*
X81247153Y-59299918D01*
X81343659Y-59110514D01*
X81409348Y-58908345D01*
X81442602Y-58698389D01*
X81442602Y-58485815D01*
X81409348Y-58275859D01*
X81343659Y-58073690D01*
X81303502Y-57994878D01*
X81290607Y-57926211D01*
X81316883Y-57861471D01*
X81373989Y-57821213D01*
X81443795Y-57818221D01*
X81501669Y-57850904D01*
X83863181Y-60212416D01*
X83896666Y-60273739D01*
X83899500Y-60300097D01*
X83899500Y-68985500D01*
X83879815Y-69052539D01*
X83827011Y-69098294D01*
X83775500Y-69109500D01*
X82102129Y-69109500D01*
X82102123Y-69109501D01*
X82042516Y-69115908D01*
X81907671Y-69166202D01*
X81907664Y-69166206D01*
X81792455Y-69252452D01*
X81792452Y-69252455D01*
X81706206Y-69367664D01*
X81706202Y-69367671D01*
X81655908Y-69502517D01*
X81649501Y-69562116D01*
X81649500Y-69562135D01*
X81649500Y-69735500D01*
X81629815Y-69802539D01*
X81577011Y-69848294D01*
X81525500Y-69859500D01*
X79724500Y-69859500D01*
X79657461Y-69839815D01*
X79611706Y-69787011D01*
X79600500Y-69735500D01*
X79600500Y-62589059D01*
X79600501Y-62589046D01*
X79600501Y-62420945D01*
X79600501Y-62420943D01*
X79559577Y-62268215D01*
X79517482Y-62195305D01*
X79480520Y-62131284D01*
X79368716Y-62019480D01*
X79364385Y-62015149D01*
X79364374Y-62015139D01*
X77136819Y-59787584D01*
X77103334Y-59726261D01*
X77100500Y-59699903D01*
X77100500Y-57809758D01*
X77106738Y-57788512D01*
X77108318Y-57766424D01*
X77116390Y-57755640D01*
X77120185Y-57742719D01*
X77136918Y-57728219D01*
X77150190Y-57710491D01*
X77162810Y-57705783D01*
X77172989Y-57696964D01*
X77194906Y-57693812D01*
X77215654Y-57686074D01*
X77228814Y-57688936D01*
G37*
%TD.AperFunction*%
%TA.AperFunction,NonConductor*%
G36*
X73633738Y-89120185D02*
G01*
X73679493Y-89172989D01*
X73689437Y-89242147D01*
X73660412Y-89305703D01*
X73654380Y-89312181D01*
X73603380Y-89363181D01*
X73542057Y-89396666D01*
X73515699Y-89399500D01*
X72619057Y-89399500D01*
X72460942Y-89399500D01*
X72308215Y-89440423D01*
X72308214Y-89440423D01*
X72308212Y-89440424D01*
X72308209Y-89440425D01*
X72258098Y-89469357D01*
X72258095Y-89469360D01*
X72226055Y-89487857D01*
X72178904Y-89515080D01*
X72111003Y-89531551D01*
X72044977Y-89508698D01*
X72001787Y-89453777D01*
X71995146Y-89384223D01*
X72027163Y-89322121D01*
X72029184Y-89320051D01*
X72212417Y-89136819D01*
X72273740Y-89103334D01*
X72300098Y-89100500D01*
X73420943Y-89100500D01*
X73566699Y-89100500D01*
X73633738Y-89120185D01*
G37*
%TD.AperFunction*%
%TA.AperFunction,NonConductor*%
G36*
X81592540Y-71080185D02*
G01*
X81638295Y-71132989D01*
X81649501Y-71184500D01*
X81649501Y-71357876D01*
X81655908Y-71417483D01*
X81706202Y-71552328D01*
X81706206Y-71552335D01*
X81792452Y-71667544D01*
X81792455Y-71667547D01*
X81907664Y-71753793D01*
X81907671Y-71753797D01*
X82039082Y-71802810D01*
X82095016Y-71844681D01*
X82119433Y-71910145D01*
X82104582Y-71978418D01*
X82083431Y-72006673D01*
X81969889Y-72120215D01*
X81844951Y-72292179D01*
X81748444Y-72481585D01*
X81682753Y-72683760D01*
X81649500Y-72893713D01*
X81649500Y-73106286D01*
X81682753Y-73316239D01*
X81748444Y-73518414D01*
X81844951Y-73707820D01*
X81969890Y-73879786D01*
X82120213Y-74030109D01*
X82292182Y-74155050D01*
X82300946Y-74159516D01*
X82351742Y-74207491D01*
X82368536Y-74275312D01*
X82345998Y-74341447D01*
X82300946Y-74380484D01*
X82292182Y-74384949D01*
X82120213Y-74509890D01*
X81969890Y-74660213D01*
X81844951Y-74832179D01*
X81748444Y-75021585D01*
X81682753Y-75223760D01*
X81649500Y-75433713D01*
X81649500Y-75646286D01*
X81682753Y-75856239D01*
X81748444Y-76058414D01*
X81844951Y-76247820D01*
X81969890Y-76419786D01*
X82120213Y-76570109D01*
X82292179Y-76695048D01*
X82292181Y-76695049D01*
X82292184Y-76695051D01*
X82481588Y-76791557D01*
X82683757Y-76857246D01*
X82893713Y-76890500D01*
X82893714Y-76890500D01*
X83106286Y-76890500D01*
X83106287Y-76890500D01*
X83316243Y-76857246D01*
X83518412Y-76791557D01*
X83707816Y-76695051D01*
X83729789Y-76679086D01*
X83879786Y-76570109D01*
X83879788Y-76570106D01*
X83879792Y-76570104D01*
X84030104Y-76419792D01*
X84030106Y-76419788D01*
X84030109Y-76419786D01*
X84133069Y-76278072D01*
X84155051Y-76247816D01*
X84165015Y-76228261D01*
X84212989Y-76177464D01*
X84280810Y-76160669D01*
X84346945Y-76183206D01*
X84390397Y-76237921D01*
X84399500Y-76284555D01*
X84399500Y-84699902D01*
X84379815Y-84766941D01*
X84363181Y-84787583D01*
X80984522Y-88166241D01*
X80923199Y-88199726D01*
X80858523Y-88196491D01*
X80816245Y-88182754D01*
X80642079Y-88155169D01*
X80606287Y-88149500D01*
X80393713Y-88149500D01*
X80357921Y-88155169D01*
X80183760Y-88182753D01*
X79981585Y-88248444D01*
X79792179Y-88344951D01*
X79620213Y-88469890D01*
X79469890Y-88620213D01*
X79344951Y-88792179D01*
X79248444Y-88981585D01*
X79182753Y-89183760D01*
X79154336Y-89363181D01*
X79149500Y-89393713D01*
X79149500Y-89606287D01*
X79153571Y-89631988D01*
X79182753Y-89816239D01*
X79185794Y-89825599D01*
X79187786Y-89895440D01*
X79151703Y-89955272D01*
X79089000Y-89986097D01*
X79029548Y-89981845D01*
X79020192Y-89978805D01*
X79020190Y-89978804D01*
X79020188Y-89978804D01*
X78871612Y-89955272D01*
X78810236Y-89945551D01*
X78597662Y-89945551D01*
X78548991Y-89953259D01*
X78387709Y-89978804D01*
X78185534Y-90044495D01*
X77996128Y-90141002D01*
X77824162Y-90265941D01*
X77673839Y-90416264D01*
X77548900Y-90588230D01*
X77452393Y-90777636D01*
X77386702Y-90979811D01*
X77353449Y-91189764D01*
X77353449Y-91350325D01*
X77333764Y-91417364D01*
X77280960Y-91463119D01*
X77211802Y-91473063D01*
X77177938Y-91463119D01*
X77050361Y-91404856D01*
X77050353Y-91404854D01*
X76907898Y-91384374D01*
X76765442Y-91404854D01*
X76765438Y-91404855D01*
X76634527Y-91464641D01*
X76587837Y-91502266D01*
X76465248Y-91624855D01*
X76403925Y-91658339D01*
X76334233Y-91653355D01*
X76289886Y-91624854D01*
X74752712Y-90087680D01*
X74719227Y-90026357D01*
X74724211Y-89956665D01*
X74752712Y-89912318D01*
X75854628Y-88810402D01*
X79480520Y-85184512D01*
X79559577Y-85047580D01*
X79600501Y-84894853D01*
X79600501Y-84736738D01*
X79600501Y-84729143D01*
X79600500Y-84729125D01*
X79600500Y-71189903D01*
X79608346Y-71163181D01*
X79612965Y-71135719D01*
X79618054Y-71130120D01*
X79620185Y-71122864D01*
X79641225Y-71104631D01*
X79659964Y-71084020D01*
X79669945Y-71079746D01*
X79672989Y-71077109D01*
X79692409Y-71070128D01*
X79712575Y-71064725D01*
X79744666Y-71060500D01*
X81525501Y-71060500D01*
X81592540Y-71080185D01*
G37*
%TD.AperFunction*%
%TA.AperFunction,NonConductor*%
G36*
X64995024Y-96491298D02*
G01*
X65038214Y-96546220D01*
X65044855Y-96615773D01*
X65012838Y-96677875D01*
X65010777Y-96679986D01*
X64577582Y-97113181D01*
X64516259Y-97146666D01*
X64489901Y-97149500D01*
X63142129Y-97149500D01*
X63142123Y-97149501D01*
X63082516Y-97155908D01*
X62947671Y-97206202D01*
X62947664Y-97206206D01*
X62832455Y-97292452D01*
X62832452Y-97292455D01*
X62746206Y-97407664D01*
X62746203Y-97407669D01*
X62697189Y-97539083D01*
X62655317Y-97595016D01*
X62589853Y-97619433D01*
X62521580Y-97604581D01*
X62493326Y-97583430D01*
X62379786Y-97469890D01*
X62207820Y-97344951D01*
X62018414Y-97248444D01*
X62018413Y-97248443D01*
X62018412Y-97248443D01*
X61816243Y-97182754D01*
X61816241Y-97182753D01*
X61816240Y-97182753D01*
X61654957Y-97157208D01*
X61606287Y-97149500D01*
X61393713Y-97149500D01*
X61345042Y-97157208D01*
X61183760Y-97182753D01*
X60981585Y-97248444D01*
X60792179Y-97344951D01*
X60620213Y-97469890D01*
X60469890Y-97620213D01*
X60344949Y-97792182D01*
X60340484Y-97800946D01*
X60292509Y-97851742D01*
X60224688Y-97868536D01*
X60158553Y-97845998D01*
X60119516Y-97800946D01*
X60115050Y-97792182D01*
X59990109Y-97620213D01*
X59839790Y-97469894D01*
X59839785Y-97469890D01*
X59690558Y-97361471D01*
X59647892Y-97306142D01*
X59641913Y-97236528D01*
X59674518Y-97174733D01*
X59675688Y-97173546D01*
X60212416Y-96636819D01*
X60273739Y-96603334D01*
X60300097Y-96600500D01*
X64413331Y-96600500D01*
X64413347Y-96600501D01*
X64420943Y-96600501D01*
X64579054Y-96600501D01*
X64579057Y-96600501D01*
X64731785Y-96559577D01*
X64781904Y-96530639D01*
X64861101Y-96484915D01*
X64928997Y-96468445D01*
X64995024Y-96491298D01*
G37*
%TD.AperFunction*%
M02*
